<?xml version="1.0" encoding="UTF-8"?>
<svg width="20px" height="17px" viewBox="0 0 20 17" version="1.1" xmlns="http://www.w3.org/2000/svg" xmlns:xlink="http://www.w3.org/1999/xlink">
    <!-- Generator: Sketch 46.2 (44496) - http://www.bohemiancoding.com/sketch -->
    <title>Group 3</title>
    <desc>Created with Sketch.</desc>
    <defs></defs>
            <rect id="Rectangle" x="3" y="4" width="6" height="1.29999995" rx="0.649999976"></rect>
            <rect id="Rectangle-Copy" x="3" y="7" width="5" height="1.29999995" rx="0.649999976"></rect>
            <rect id="Rectangle-Copy-2" x="3" y="10" width="4" height="1.29999995" rx="0.649999976"></rect>
            <path d="M16.5536182,11.5202105 L16.5536009,11.5202105 C18.2022664,12.0720523 19.3937152,13.6308326 19.3937325,15.4628192 C19.3937325,15.6578606 19.2356103,15.816 19.0405344,15.816 C18.8454585,15.816 18.6873364,15.6578434 18.6873364,15.4628019 C18.6873364,13.5605102 17.1397077,12.0128643 15.2373987,12.0128643 C13.3350897,12.0128643 11.787461,13.5605102 11.787461,15.4628192 C11.787461,15.6578606 11.6293389,15.816 11.4342629,15.816 C11.239187,15.816 11.0810821,15.6578434 11.0810821,15.4628192 C11.0810821,13.6308326 12.2725309,12.0720351 13.9211792,11.5202105 C12.9720672,11.0382258 12.3197745,10.0529873 12.3197745,8.91762416 C12.3197745,7.30884252 13.6285998,6 15.2373987,6 C16.8461976,6 18.1550401,7.30884252 18.1550401,8.91762416 C18.1550401,10.0529873 17.5027475,11.0382431 16.5536182,11.5202105 Z M13.0261534,8.91762416 C13.0261534,10.1369089 14.0181311,11.1288694 15.2373987,11.1288694 C16.4566835,11.1288694 17.4486612,10.1369089 17.4486612,8.91762416 C17.4486612,7.69833938 16.4567007,6.70636164 15.2373987,6.70636164 C14.0181311,6.70636164 13.0261534,7.69832214 13.0261534,8.91762416 Z" id="Combined-Shape" stroke="#47527B" stroke-width="0.5"></path>
            <path d="M20,5 L20,2 C20,0.8954305 19.1045695,-2.02906125e-16 18,0 L2,0 L2,0 C0.8954305,2.02906125e-16 -1.3527075e-16,0.8954305 0,2 L0,2 L0,15 C1.3527075e-16,16.1045695 0.8954305,17 2,17 L6,17 L6,16 L2,16 C1.44771525,16 1,15.5522847 1,15 L1,2 C1,1.44771525 1.44771525,1 2,1 L2,1 L18,1 C18.5522847,1 19,1.44771525 19,2 L19,5 L20,5 Z" id="Combined-Shape"></path>
</svg>