<?xml version="1.0" standalone="no"?><!DOCTYPE svg PUBLIC "-//W3C//DTD SVG 1.1//EN" "http://www.w3.org/Graphics/SVG/1.1/DTD/svg11.dtd"><svg t="1509618721836" class="icon" style="" viewBox="0 0 1024 1024" version="1.1" xmlns="http://www.w3.org/2000/svg" p-id="1426" xmlns:xlink="http://www.w3.org/1999/xlink" width="200" height="200"><defs><style type="text/css"></style></defs><path d="M924.678924 687.132716c23.328311-55.158251 35.153638-113.738437 35.147498-174.107363 0.00614-60.374042-11.82021-118.953206-35.147498-174.111457-22.528086-53.266158-54.776557-101.100606-95.850022-142.173046-41.073464-41.073464-88.908936-73.323982-142.17714-95.853092-55.160297-23.331381-113.743554-35.159778-174.118619-35.158754-60.373019-0.005117-118.954229 11.82021-174.114527 35.150568-53.268204 22.529109-101.103676 54.779627-142.178163 95.854115-41.074487 41.074487-73.323982 88.909959-95.854115 142.177139-23.330358 55.160297-35.155684 113.741507-35.150568 174.110434-0.005117 60.373019 11.82021 118.954229 35.150568 174.114526 22.529109 53.268204 54.779627 101.103676 95.854115 142.17714 41.074487 41.074487 88.909959 73.325006 142.178163 95.854115 55.160297 23.330358 113.741507 35.155684 174.111457 35.150568 60.378136 0 118.961392-11.827373 174.121689-35.158755 53.268204-22.530133 101.103676-54.778604 142.17714-95.852068 41.073464-41.073464 73.321936-88.907912 95.850022-142.17407z m-253.825986 200.669322c-50.133817 21.203928-103.400998 31.955806-158.322865 31.954783-54.914704 0.005117-108.177791-10.743692-158.310586-31.946596-48.433082-20.484543-91.934852-49.814546-129.297808-87.178525-37.361933-37.361933-66.692958-80.863702-87.177502-129.296785-21.202904-50.131771-31.952736-103.395882-31.946596-158.313655-0.005117-54.914704 10.743692-108.177791 31.946596-158.310586 20.484543-48.433082 49.814546-91.934852 87.177502-129.296785 37.362956-37.362956 80.864726-66.693981 129.297808-87.178525 50.131771-21.202904 103.395882-31.952736 158.312632-31.946596 54.918797-0.001023 108.185978 10.750855 158.320819 31.954783 48.433082 20.484543 91.933829 49.815569 129.295761 87.177502 37.360909 37.360909 66.689888 80.859609 87.173409 129.291668 21.201881 50.130747 31.948643 103.393835 31.944549 158.312632 0.005117 54.914704-10.741645 108.177791-31.944549 158.308539-20.482497 48.431036-49.811476 91.930759-87.172386 129.291668-37.361933 37.361933-80.863702 66.691935-129.296784 87.176478z" p-id="1427" fill="#F79300"></path><path d="M735.326345 513.057075c0.001023-11.199063-9.078773-20.277836-20.279883-20.280905l-182.208878-0.007163-0.00614-182.208879c0-11.20111-9.080819-20.279882-20.280905-20.279882s-20.279882 9.080819-20.279883 20.280906l0.00614 182.205808-182.205808-0.00614c-11.20111 0-20.280906 9.078773-20.280906 20.279882a20.215414 20.215414 0 0 0 5.940293 14.341637 20.221554 20.221554 0 0 0 14.33959 5.940292l182.208878 0.00614 0.007163 182.208878a20.211321 20.211321 0 0 0 5.940293 14.33959 20.22053 20.22053 0 0 0 14.340613 5.940293c11.20111 0 20.279882-9.080819 20.279882-20.280906l-0.00614-182.205808 182.205808 0.00614c11.199063 0 20.279882-9.078773 20.279883-20.279883z" p-id="1428" fill="#F79300"></path></svg>