<?xml version="1.0" standalone="no"?><!DOCTYPE svg PUBLIC "-//W3C//DTD SVG 1.1//EN" "http://www.w3.org/Graphics/SVG/1.1/DTD/svg11.dtd"><svg class="icon" width="200px" height="200.00px" viewBox="0 0 1024 1024" version="1.1" xmlns="http://www.w3.org/2000/svg"><path d="M804.571429 804.571429V694.857143a36.571429 36.571429 0 0 1 73.142857 0V804.571429h109.714285a36.571429 36.571429 0 0 1 0 73.142857H877.714286v109.714285a36.571429 36.571429 0 0 1-73.142857 0V877.714286H694.857143a36.571429 36.571429 0 0 1 0-73.142857H804.571429zM677.522286 673.792A365.714286 365.714286 0 0 0 73.142857 950.857143H0a439.003429 439.003429 0 0 1 283.282286-410.477714 292.571429 292.571429 0 1 1 311.222857 0 438.857143 438.857143 0 0 1 141.750857 87.771428c-29.988571 0-50.761143 17.188571-58.733714 45.641143zM438.857143 512a219.428571 219.428571 0 1 0 0-438.857143 219.428571 219.428571 0 0 0 0 438.857143z" /></svg>