<?xml version="1.0" encoding="UTF-8"?>
<svg width="19px" height="22px" viewBox="0 0 19 22" version="1.1" xmlns="http://www.w3.org/2000/svg" xmlns:xlink="http://www.w3.org/1999/xlink">
    <!-- Generator: Sketch 46.2 (44496) - http://www.bohemiancoding.com/sketch -->
    <title>Group 8</title>
    <desc>Created with Sketch.</desc>
    <defs></defs>
    <g id="二期web0124" stroke="none" stroke-width="1" fill-rule="evenodd">
        <g id="人才库-简历上传-信息确认-copy" transform="translate(-20.000000, -255.000000)" fill-rule="nonzero">
            <g id="Group-7" transform="translate(0.000000, 56.000000)">
                <g id="Group-29">
                    <g id="Group-8" transform="translate(20.000000, 199.000000)">
                        <path d="M17.7502278,0 L1.36540214,0 C0.546160855,0 0,0.527770449 0,1.31942612 L0,19.7913918 C0,20.5830475 0.546160855,21.1108179 1.36540214,21.1108179 L12.6982399,21.1108179 C12.8347801,21.1108179 13.1078605,21.1108179 13.2444007,20.9788753 L18.8425495,15.5692282 C18.9790897,15.4372856 18.9790897,15.305343 18.9790897,15.0414578 L18.9790897,1.31942612 C19.1156299,0.527770449 18.5694691,0 17.7502278,0 Z M13.6540214,18.7358509 L13.6540214,16.4928265 C13.6540214,16.0969987 13.9271018,15.8331135 14.3367225,15.8331135 L16.6579061,15.8331135 L13.6540214,18.7358509 Z M17.7502278,14.5136873 L13.6540214,14.5136873 C12.8347801,14.5136873 12.2886192,15.0414578 12.2886192,15.8331135 L12.2886192,19.7913918 L2.04810321,19.7913918 C1.63848257,19.7913918 1.36540214,19.5275066 1.36540214,19.1316788 L1.36540214,1.97913918 C1.36540214,1.58331135 1.63848257,1.31942612 2.04810321,1.31942612 L17.0675267,1.31942612 C17.4771474,1.31942612 17.7502278,1.58331135 17.7502278,1.97913918 L17.7502278,14.5136873 Z" id="Shape"></path>
                        <path d="M11.8666667,6.36066203 C12.4,5.84888462 12.6666667,5.20916287 12.6666667,4.56944111 C12.6666667,3.16205325 11.4666667,2.01055409 10,2.01055409 C8.53333333,2.01055409 7.33333333,3.16205325 7.33333333,4.56944111 C7.33333333,5.20916287 7.6,5.84888462 8.13333333,6.36066203 C6.8,7.00038379 6,8.2798273 6,9.68721516 C6,10.0710482 6.26666667,10.3269369 6.66666667,10.3269369 C7.06666667,10.3269369 7.33333333,10.0710482 7.33333333,9.68721516 C7.33333333,8.2798273 8.53333333,7.12832814 10,7.12832814 C11.4666667,7.12832814 12.6666667,8.2798273 12.6666667,9.68721516 C12.6666667,10.0710482 12.9333333,10.3269369 13.3333333,10.3269369 C13.7333333,10.3269369 14,10.0710482 14,9.68721516 C14,8.2798273 13.2,7.00038379 11.8666667,6.36066203 Z M10,5.84888462 C9.2,5.84888462 8.66666667,5.33710722 8.66666667,4.56944111 C8.66666667,3.80177501 9.2,3.2899976 10,3.2899976 C10.8,3.2899976 11.3333333,3.80177501 11.3333333,4.56944111 C11.3333333,5.33710722 10.8,5.84888462 10,5.84888462 Z M10.6666667,12.2461022 L6.66666667,12.2461022 C6.26666667,12.2461022 6,12.5019909 6,12.8858239 C6,13.269657 6.26666667,13.5255457 6.66666667,13.5255457 L10.6666667,13.5255457 C11.0666667,13.5255457 11.3333333,13.269657 11.3333333,12.8858239 C11.3333333,12.5019909 11.0666667,12.2461022 10.6666667,12.2461022 Z M9.33333333,14.8049892 L6.66666667,14.8049892 C6.26666667,14.8049892 6,15.0608779 6,15.444711 C6,15.828544 6.26666667,16.0844327 6.66666667,16.0844327 L9.33333333,16.0844327 C9.73333333,16.0844327 10,15.828544 10,15.444711 C10,15.0608779 9.73333333,14.8049892 9.33333333,14.8049892 L9.33333333,14.8049892 Z" id="Shape"></path>
                    </g>
                </g>
            </g>
        </g>
    </g>
</svg>