<?xml version="1.0" encoding="UTF-8"?>
<svg width="20px" height="20px" viewBox="0 0 20 20" version="1.1" xmlns="http://www.w3.org/2000/svg" xmlns:xlink="http://www.w3.org/1999/xlink">
    <!-- Generator: Sketch 46.2 (44496) - http://www.bohemiancoding.com/sketch -->
    <title>Page 1</title>
    <desc>Created with Sketch.</desc>
    <defs></defs>
    <g id="切图" stroke="none" stroke-width="1" fill-rule="evenodd">
        <g id="Page-1">
            <path d="M11.5150863,8.34179553 C12.9729525,8.93868159 14,10.3712032 14,12.044 C14,12.195 13.992,12.343 13.976,12.489 L13.972305,12.489 C13.9561012,12.8496649 13.6585836,13.138 13.293,13.138 C12.917,13.138 12.613,12.833 12.613,12.458 C12.613,12.3686192 12.6301785,12.283307 12.6614192,12.2051799 C12.6644731,12.151932 12.666,12.0982205 12.666,12.044 C12.666,10.571 11.473,9.378 10,9.378 C8.527,9.378 7.334,10.571 7.334,12.044 C7.334,12.1417075 7.33854528,12.2377621 7.3484327,12.3324295 C7.35361058,12.360169 7.35710464,12.3885044 7.35880422,12.4173267 C7.36216755,12.4413017 7.36589505,12.4651913 7.37,12.489 L7.35930276,12.489 C7.34304729,12.8496649 7.04461128,13.138 6.68,13.138 C6.304,13.138 6,12.833 6,12.458 C6,12.4172741 6.00356648,12.3773929 6.01040463,12.3386511 C6.00346821,12.2415444 6,12.1434225 6,12.044 C6,10.4498021 6.93280016,9.07383051 8.28232873,8.43140518 C7.61040248,7.94735225 7.173,7.15814602 7.173,6.266 C7.173,4.794 8.367,3.6 9.84,3.6 C11.313,3.6 12.507,4.794 12.507,6.266 C12.507,7.10505884 12.120104,7.85306427 11.5150863,8.34179553 Z M11,16.3745189 L11,16.4 L6.677,16.4 L6.677,16.3905889 C6.29344594,16.3313159 6,15.9992649 6,15.6 C6,15.1998297 6.29344594,14.8685127 6.677,14.8093868 L6.677,14.8 L11,14.8 L11,14.8254188 C11.3448887,14.9144968 11.6,15.2274025 11.6,15.6 C11.6,15.9717545 11.3448887,16.2852384 11,16.3745189 Z M3,0 L17,0 C18.656,0 20,1.343 20,3 L20,16 L18.458,16 C18.486,15.838 18.5,15.671 18.5,15.501 L18.5,4.5 C18.5,2.843 17.157,1.5 15.5,1.5 L4.5,1.5 C2.844,1.5 1.5,2.843 1.5,4.5 L1.5,15.501 C1.5,17.156 2.844,18.5 4.5,18.5 L15.5,18.5 C15.67,18.5 15.838,18.486 16,18.459 L16,20.001 L16.5,20.001 L3,20.001 C1.343,20.001 0,18.657 0,17 L0,3 C0,1.343 1.343,0 3,0 Z M12.2,15.6 C12.2,15.158 12.558,14.8 13,14.8 C13.442,14.8 13.8,15.158 13.8,15.6 C13.8,16.041 13.442,16.4 13,16.4 C12.558,16.4 12.2,16.041 12.2,15.6 Z M9.8399,5.1999 C9.2519,5.1999 8.7739,5.6789 8.7739,6.2669 C8.7739,6.8549 9.2519,7.3329 9.8399,7.3329 C10.4279,7.3329 10.9069,6.8549 10.9069,6.2669 C10.9069,5.6789 10.4279,5.1999 9.8399,5.1999 Z" id="Combined-Shape"></path>
            <path d="M16,15 L19,15 C19.552,15 20,15.448 20,16 L16,20.001 C15.448,20.001 15,19.552 15,19.001 L15,16 C15,15.448 15.448,15 16,15 Z M16.299,17.74 C16.299,17.939 16.461,18.1 16.66,18.1 L18.1,16.66 C18.1,16.461 17.939,16.3 17.74,16.3 L16.66,16.3 C16.461,16.3 16.299,16.461 16.299,16.66 L16.299,17.74 Z" id="Clip-5"></path>
        </g>
    </g>
</svg>