<?xml version="1.0" standalone="no"?><!DOCTYPE svg PUBLIC "-//W3C//DTD SVG 1.1//EN" "http://www.w3.org/Graphics/SVG/1.1/DTD/svg11.dtd"><svg class="icon" width="200px" height="200.00px" viewBox="0 0 1024 1024" version="1.1" xmlns="http://www.w3.org/2000/svg"><path d="M506.1888 568.576c54.780928-40.628224 90.560512-107.624448 90.560512-183.395328 0-123.9296-95.686656-224.390144-213.721088-224.390144-118.033408 0-213.716992 100.460544-213.716992 224.390144 0 78.410752 38.317056 147.41504 96.354304 187.533312-108.419072 49.651712-184.855552 161.917952-187.8528 293.287936h30.539776c3.224576-127.519744 83.13344-234.974208 193.08032-273.386496 25.14432 10.91584 52.697088 16.95232 81.595392 16.95232 31.386624 0 61.18912-7.105536 88.035328-19.861504 114.476032 35.63008 198.597632 145.386496 201.908224 276.29568h30.543872c-3.084288-135.161856-83.910656-250.099712-197.326848-297.42592z m-123.160576 8.928256c-101.169152 0-183.187456-86.107136-183.187456-192.323584 0-106.223616 82.018304-192.32768 183.187456-192.32768 101.172224 0 183.190528 86.104064 183.190528 192.32768 0 106.216448-82.018304 192.323584-183.190528 192.323584z m262.403072-327.87968H968.69376v39.104512H645.431296v-39.104512z m40.40704 247.84384H968.69376v39.103488H685.838336v-39.103488z m121.223168 237.60384H968.69376v39.104512H807.061504v-39.104512z" fill="#7c84a1" /></svg>