<svg xmlns="http://www.w3.org/2000/svg" xmlns:xlink="http://www.w3.org/1999/xlink" viewBox="0 0 30 30"><defs><style>.cls-1,.cls-2{}.cls-1{clip-rule:evenodd;}.cls-3{clip-path:url(#clip-path);}.cls-4{}.cls-5{clip-path:url(#clip-path-2);}.cls-6{clip-path:url(#clip-path-3);}.cls-7{clip-path:url(#clip-path-4);}.cls-8{clip-path:url(#clip-path-5);}.cls-9{clip-path:url(#clip-path-6);}.cls-10{clip-path:url(#clip-path-7);}.cls-11{clip-path:url(#clip-path-8);}.cls-12{clip-path:url(#clip-path-9);}</style><clipPath id="clip-path"><path class="cls-1" d="M25,8a3,3,0,0,0-3-3H8A3,3,0,0,0,5,8V22a3,3,0,0,0,3,3H21V23.46a2.74,2.74,0,0,1-.5,0H9.5a3,3,0,0,1-3-3V9.5a3,3,0,0,1,3-3h11a3,3,0,0,1,3,3v11a2.74,2.74,0,0,1,0,.5H25"/></clipPath><clipPath id="clip-path-2"><path class="cls-1" d="M21.66,23.1l1.44-1.44a.36.36,0,0,0-.36-.36H21.66a.36.36,0,0,0-.36.36v1.08A.36.36,0,0,0,21.66,23.1ZM21,25a1,1,0,0,1-1-1V21a1,1,0,0,1,1-1h3a1,1,0,0,1,1,1Z"/></clipPath><clipPath id="clip-path-3"><path class="cls-1" d="M12.6,20.6a.8.8,0,1,1-.8-.8.8.8,0,0,1,.8.8"/></clipPath><clipPath id="clip-path-4"><path class="cls-1" d="M16.6,20.6a.8.8,0,1,1-.8-.8.8.8,0,0,1,.8.8"/></clipPath><clipPath id="clip-path-5"><path class="cls-1" d="M18.8,20.6a.8.8,0,1,1-.8-.8.8.8,0,0,1,.8.8"/></clipPath><clipPath id="clip-path-6"><circle class="cls-2" cx="14.84" cy="11.27" r="2.67"/></clipPath><clipPath id="clip-path-7"><circle class="cls-2" cx="18.29" cy="17.46" r="0.68"/></clipPath><clipPath id="clip-path-8"><circle class="cls-2" cx="11.68" cy="17.46" r="0.68"/></clipPath><clipPath id="clip-path-9"><path class="cls-1" d="M11,17.49c0-.15,0-.3,0-.45a4,4,0,0,1,8,0c0,.15,0,.3,0,.45H17.63a3.27,3.27,0,0,0,0-.45,2.67,2.67,0,0,0-5.34,0,3.27,3.27,0,0,0,0,.45Z"/></clipPath></defs><title>资源 5</title><g id="图层_2" data-name="图层 2"><g id="图层_1-2" data-name="图层 1"><g class="cls-3"><rect class="cls-4" width="30" height="30"/></g><g class="cls-5"><rect class="cls-4" x="15" y="15" width="15" height="15"/></g><rect class="cls-4" x="11.68" y="19.8" width="4.32" height="1.6"/><g class="cls-6"><rect class="cls-4" x="6" y="14.8" width="11.6" height="11.6"/></g><g class="cls-7"><rect class="cls-4" x="10" y="14.8" width="11.6" height="11.6"/></g><g class="cls-8"><rect class="cls-4" x="12.2" y="14.8" width="11.6" height="11.6"/></g><g class="cls-9"><path class="cls-4" d="M14.84,15.53a4.27,4.27,0,1,1,4.27-4.26A4.27,4.27,0,0,1,14.84,15.53Zm0-5.33a1.07,1.07,0,1,0,1.07,1.07A1.07,1.07,0,0,0,14.84,10.2Z"/></g><g class="cls-10"><rect class="cls-4" x="12.61" y="11.78" width="11.36" height="11.36"/></g><g class="cls-11"><rect class="cls-4" x="6" y="11.78" width="11.36" height="11.36"/></g><g class="cls-12"><rect class="cls-4" x="6" y="8.04" width="18" height="14.44"/></g></g></g></svg>