<svg class="icon" width="200" height="200" viewBox="0 0 1024 1024" xmlns="http://www.w3.org/2000/svg"><path d="M741.9 878.9H286.2c-8.6-.1-16.9 3.2-23 9.3-6.1 6-9.6 14.2-9.7 22.8.1 8.6 3.6 16.8 9.7 22.8s14.4 9.4 23 9.3h455.7c8.6.1 16.8-3.3 23-9.3 6.1-6 9.6-14.2 9.7-22.8-.1-8.6-3.5-16.8-9.7-22.8-6.2-6.1-14.4-9.4-23-9.3zm14.7-571.2l-190 162.8-209.7-117.1L196.4 520c-5.9 6.1-9.1 14.4-8.9 23 .2 8.5 3.9 16.6 10.2 22.4 13.1 12.3 33.7 11.7 46.2-1.3L369.2 434l206.5 115.3 225-194.2c6.4-5.7 10.3-13.7 10.7-22.2.4-8.5-2.7-16.9-8.5-23.1-12.4-13.1-32.9-14-46.3-2.1z"/><path  d="M936.5 80.9h-849c-39.4 0-71.4 31.5-71.4 70.2v557.3c.4 39.1 32.3 70.5 71.4 70.2h849c39.4 0 71.4-31.4 71.4-70.2V151.1c0-38.7-32.1-70.2-71.4-70.2zm6.1 627.6c0 1.6-.7 3.1-1.8 4.3-1.2 1.1-2.7 1.7-4.3 1.7h-849c-3.4 0-6.1-2.7-6.1-6V151.1c0-1.6.7-3.1 1.8-4.3 1.2-1.1 2.7-1.7 4.3-1.7h849c1.6 0 3.2.6 4.3 1.7 1.2 1.1 1.8 2.7 1.8 4.3v557.4z"/></svg>