<svg class="icon" width="200" height="200" viewBox="0 0 1024 1024" xmlns="http://www.w3.org/2000/svg"><path d="M53.3 0c29.5 0 53.3 23.9 53.3 53.3v917.3c0 29.5-23.9 53.3-53.3 53.3-29.5 0-53.3-23.9-53.3-53.3V53.3C0 23.9 23.9 0 53.3 0zM1024 970.7c0 29.5-23.9 53.3-53.3 53.3H53.3C23.8 1024 0 1000.1 0 970.7c0-29.5 23.9-53.3 53.3-53.3h917.3c29.5-.1 53.4 23.8 53.4 53.3zM465 731.3c-20.7 0-39.6-12-48.4-30.9L349 554.3l-34.5 57.1c-9.6 15.9-26.8 25.7-45.3 25.8l-76.8.5h-.4c-29.3 0-53.1-23.6-53.3-53-.2-29.5 23.5-53.5 53-53.7l46.9-.3 70.9-117.6c10.2-16.9 28.9-26.8 48.6-25.7 19.7 1.1 37.2 12.9 45.5 30.9l53.8 116.2 107.5-316.9c7.3-21.6 27.7-36.2 50.5-36.2h.1c22.9 0 43.2 14.6 50.5 36.3l105 311.5 179.4-.4h.1c29.4 0 53.3 23.8 53.3 53.2.1 29.5-23.8 53.4-53.2 53.5l-217.8.5h-.1c-22.9 0-43.2-14.6-50.5-36.3l-66.8-198.4-99.7 293.9c-7 20.7-25.9 35-47.7 36.1h-3z"/></svg>