<?xml version="1.0" standalone="no"?><!DOCTYPE svg PUBLIC "-//W3C//DTD SVG 1.1//EN" "http://www.w3.org/Graphics/SVG/1.1/DTD/svg11.dtd"><svg t="1509618923239" class="icon" style="" viewBox="0 0 1024 1024" version="1.1" xmlns="http://www.w3.org/2000/svg" p-id="2744" xmlns:xlink="http://www.w3.org/1999/xlink" width="200" height="200"><defs><style type="text/css"></style></defs><path d="M512 0C229.696 0 0 229.696 0 512s229.696 512 512 512 512-229.696 512-512S794.304 0 512 0zM512 960C264.96 960 64 759.04 64 512S264.96 64 512 64s448 200.96 448 448S759.04 960 512 960zM704 480 320 480c-17.696 0-32 14.304-32 32s14.304 32 32 32l384 0c17.696 0 32-14.304 32-32S721.696 480 704 480z" p-id="2745" fill="#F79300"></path></svg>