<svg xmlns="http://www.w3.org/2000/svg" viewBox="0 0 92.63 99.78"><title>资源 10</title><g id="图层_2" data-name="图层 2"><g id="图层_1-2" data-name="图层 1"><path d="M80.32,13.46H72.74A13.7,13.7,0,0,0,58.92,0H34.19a13.7,13.7,0,0,0-13.7,13.46H12.12A12.12,12.12,0,0,0,0,25.58v6.06a6.08,6.08,0,0,0,6.06,6.07H7l6.06,53a8.86,8.86,0,0,0,8.55,9.09H71.23a8.73,8.73,0,0,0,8.3-8.85L85.6,37.65h1a6.08,6.08,0,0,0,6.06-6.07V25.52A12.12,12.12,0,0,0,80.32,13.46ZM34.19,6.06H58.92a7.64,7.64,0,0,1,7.76,7.4H26.55a7.64,7.64,0,0,1,7.64-7.4ZM86.38,31.64H80a3,3,0,0,0-2.15.89A3.07,3.07,0,0,0,77,34.68a3,3,0,0,0,2.36,2.9L73.29,90.69a2.85,2.85,0,0,1-2.49,3H21.4c-1.33,0-2.49-1.4-2.49-3.34L12.85,37.77H47.59a3,3,0,0,0,0-6.07H6.06V25.64a6.08,6.08,0,0,1,6.06-6.06h68.2a6.06,6.06,0,0,1,6.06,6.06Z"/><path d="M74.73,31.64H44.66c-8.3,0-15,1.36-15,3s6.72,3,15,3H74.73c15.75,0,15,0,15-3,0-2.84-1.88-3-15-3ZM32.92,48.5a3,3,0,0,0-3,3V81.84a3,3,0,0,0,6.06,0V51.53a3,3,0,0,0-3-3Zm13.82,0a3,3,0,0,0-3,3V81.84a3,3,0,0,0,6.06,0V51.53a3,3,0,0,0-3-3ZM61.47,48a3,3,0,0,0-3,3V81.29a3,3,0,1,0,6.06,0V51a3,3,0,0,0-3-3Z"/></g></g></svg>