<?xml version="1.0" standalone="no"?><!DOCTYPE svg PUBLIC "-//W3C//DTD SVG 1.1//EN" "http://www.w3.org/Graphics/SVG/1.1/DTD/svg11.dtd"><svg class="icon" width="200px" height="200.00px" viewBox="0 0 1024 1024" version="1.1" xmlns="http://www.w3.org/2000/svg"><path d="M961.5 700.5 889 700.5 889 512c0-24-19.5-43.5-43.5-43.5L541 468.5l0-145 72.5 0c24 0 43.5-19.5 43.5-43.5L657 77c0-24-19.5-43.5-43.5-43.5l-203 0C386.5 33.5 367 53 367 77l0 203c0 24 19.5 43.5 43.5 43.5L483 323.5l0 145L178.5 468.5c-24 0-43.5 19.5-43.5 43.5l0 188.5L62.5 700.5C38.5 700.5 19 720 19 744l0 203c0 24 19.5 43.5 43.5 43.5l203 0c24 0 43.5-19.5 43.5-43.5L309 744c0-24-19.5-43.5-43.5-43.5L193 700.5l0-174 290 0 0 174-72.5 0c-24 0-43.5 19.5-43.5 43.5l0 203c0 24 19.5 43.5 43.5 43.5l203 0c24 0 43.5-19.5 43.5-43.5L657 744c0-24-19.5-43.5-43.5-43.5L541 700.5l0-174 290 0 0 174-72.5 0c-24 0-43.5 19.5-43.5 43.5l0 203c0 24 19.5 43.5 43.5 43.5l203 0c24 0 43.5-19.5 43.5-43.5L1005 744C1005 720 985.5 700.5 961.5 700.5zM425 91.5l174 0 0 174L425 265.5 425 91.5zM251 758.5l0 174L77 932.5l0-174L251 758.5zM599 932.5 425 932.5l0-174 174 0L599 932.5zM947 932.5 773 932.5l0-174 174 0L947 932.5z" /></svg>