<?xml version="1.0" standalone="no"?><!DOCTYPE svg PUBLIC "-//W3C//DTD SVG 1.1//EN" "http://www.w3.org/Graphics/SVG/1.1/DTD/svg11.dtd"><svg t="1509949901652" class="icon" style="" viewBox="0 0 1024 1024" version="1.1" xmlns="http://www.w3.org/2000/svg" p-id="5137" xmlns:xlink="http://www.w3.org/1999/xlink" width="32" height="32"><defs><style type="text/css"></style></defs><path d="M541.682 870.913l344.38-350.588c14.495-14.827 14.495-38.802 0-53.633a36.876 36.876 0 0 0-52.788 0L512.928 792.939 192.456 466.691c-14.564-14.831-38.107-14.831-52.667 0-14.564 14.831-14.564 38.807 0 53.633l344.255 350.591c7.95 8.159 18.504 11.431 28.884 10.754 10.307 0.678 20.808-2.593 28.753-10.754z m-28.754-263.962c10.312 0.746 20.808-2.589 28.753-10.626l344.38-350.594c14.495-14.827 14.495-38.802 0-53.756-14.564-14.828-38.225-14.703-52.788 0L512.928 518.349 192.456 191.975c-14.564-14.703-38.107-14.828-52.667 0-14.564 14.955-14.564 38.93 0 53.756l344.255 350.593c7.949 8.037 18.504 11.372 28.884 10.626z m0 0z" p-id="5138"></path></svg>