<?xml version="1.0" standalone="no"?><!DOCTYPE svg PUBLIC "-//W3C//DTD SVG 1.1//EN" "http://www.w3.org/Graphics/SVG/1.1/DTD/svg11.dtd"><svg t="1509949623473" class="icon" style="" viewBox="0 0 1024 1024" version="1.1" xmlns="http://www.w3.org/2000/svg" p-id="4917" xmlns:xlink="http://www.w3.org/1999/xlink" width="32" height="32"><defs><style type="text/css"></style></defs><path d="M482.318 174.42l-344.38 350.588c-14.495 14.827-14.495 38.802 0 53.633 6.703 6.866 16.052 11.123 26.394 11.123 10.342 0 19.692-4.258 26.387-11.116l320.353-326.254 320.472 326.248c14.564 14.831 38.107 14.831 52.667 0 14.564-14.831 14.564-38.807 0-53.633l-344.255-350.591c-7.95-8.159-18.504-11.431-28.884-10.754-10.307-0.678-20.808 2.593-28.753 10.754zM511.072 438.382c-10.312-0.746-20.808 2.589-28.753 10.626l-344.38 350.594c-14.495 14.827-14.495 38.802 0 53.756 14.564 14.828 38.225 14.703 52.788 0l320.345-326.374 320.472 326.374c14.564 14.703 38.107 14.828 52.667 0 14.564-14.955 14.564-38.93 0-53.756l-344.255-350.593c-7.949-8.037-18.504-11.372-28.884-10.626zM511.072 438.382z" p-id="4918"></path></svg>