<?xml version="1.0" standalone="no"?><!DOCTYPE svg PUBLIC "-//W3C//DTD SVG 1.1//EN" "http://www.w3.org/Graphics/SVG/1.1/DTD/svg11.dtd"><svg class="icon" width="200px" height="200.00px" viewBox="0 0 1024 1024" version="1.1" xmlns="http://www.w3.org/2000/svg"><path d="M748.892315 816.572764c0 18.508539-15.33322 33.841759-33.841759 33.841759-18.505469 0-33.841759-15.33322-33.841759-33.841759 0-18.505469 15.33629-33.841759 33.841759-33.841759C733.559095 782.731004 748.892315 798.068318 748.892315 816.572764zM884.260375 816.572764c0 18.508539-15.33629 33.841759-33.841759 33.841759-18.508539 0-33.841759-15.33322-33.841759-33.841759 0-18.505469 15.33322-33.841759 33.841759-33.841759C868.924085 782.731004 884.260375 798.068318 884.260375 816.572764zM951.940824 698.128141c0-28.02324-22.734794-50.761104-50.761104-50.761104L655.828756 647.367037l-71.913866 71.913866c-19.566638 19.035542-44.945655 29.612435-71.913866 29.612435-26.968212 0-52.350298-10.57587-71.913866-29.612435l-71.38277-71.913866L122.82335 647.367037c-28.02631 0-50.764174 22.737864-50.764174 50.761104l0 169.20982c0 28.02324 22.737864 50.761104 50.764174 50.761104l778.357394 0c28.02631 0 50.761104-22.737864 50.761104-50.761104L951.941847 698.128141zM780.089851 397.254629c-5.288446-12.161994-17.450441-20.621667-31.197536-20.621667L613.527324 376.632963 613.527324 139.742694c0-18.508539-15.33629-33.841759-33.841759-33.841759L444.317505 105.900935c-18.505469 0-33.841759 15.33322-33.841759 33.841759l0 236.891292L275.110755 376.633986c-13.748119 0-25.910113 8.459672-31.197536 20.621667-5.288446 12.69002-2.644223 27.495214 7.401574 37.014009l236.891292 236.891292c6.346545 6.873548 15.33629 10.048867 23.796986 10.048867 8.459672 0 17.450441-3.174296 23.792892-10.048867l236.894362-236.891292C782.734074 424.750867 785.378298 409.94465 780.089851 397.254629z" fill="#ffffff" /></svg>