<svg xmlns="http://www.w3.org/2000/svg" viewBox="0 0 135.95 99.69"><title>资源 12</title><g id="图层_2" data-name="图层 2"><g id="图层_1-2" data-name="图层 1"><path d="M119,0H17A17,17,0,0,0,0,17V82.71a17,17,0,0,0,17,17H119a17,17,0,0,0,17-17V17A17,17,0,0,0,119,0Zm10.11,83.93a8.22,8.22,0,0,1-8.23,8.2H15.11a8.22,8.22,0,0,1-8.22-8.2V15.76a8.22,8.22,0,0,1,8.22-8.2H120.84a8.22,8.22,0,0,1,8.23,8.2Z"/><path d="M113.39,30.6,68,59.88,22.54,30.6a4.53,4.53,0,0,0-4.9,7.62L65.53,69.07a4.53,4.53,0,0,0,4.9,0L118.3,38.22a4.53,4.53,0,0,0-4.91-7.62Z"/></g></g></svg>