<?xml version="1.0" encoding="UTF-8"?>
<svg width="14px" height="14px" viewBox="0 0 14 14" version="1.1" xmlns="http://www.w3.org/2000/svg" xmlns:xlink="http://www.w3.org/1999/xlink">
    <!-- Generator: Sketch 46.2 (44496) - http://www.bohemiancoding.com/sketch -->
    <title>Shape</title>
    <desc>Created with Sketch.</desc>
    <defs></defs>
    <g id="二期web0124" stroke="none" stroke-width="1" fill="none" fill-rule="evenodd">
        <g id="3职位管理1（已改）" transform="translate(-818.000000, -142.000000)" fill-rule="nonzero" fill="#2d8cf0">
            <path d="M829.666667,156 L829.766667,156 L829.666667,156 Z M831.62994,149.777778 L827.703393,149.777778 C827.472106,149.777778 827.333333,149.94152 827.333333,150.105263 L827.333333,150.22807 C827.333333,150.432749 827.518363,150.555556 827.703393,150.555556 L831.62994,150.555556 C831.861228,150.555556 832,150.391813 832,150.22807 L832,150.146199 C831.998221,149.94152 831.81497,149.777778 831.62994,149.777778 L831.62994,149.777778 Z M831.62994,152.111111 L827.703393,152.111111 C827.472106,152.111111 827.333333,152.274854 827.333333,152.438596 L827.333333,152.561404 C827.333333,152.766082 827.518363,152.888889 827.703393,152.888889 L831.62994,152.888889 C831.861228,152.888889 832,152.725146 832,152.561404 L832,152.438596 C831.998221,152.233918 831.81497,152.111111 831.62994,152.111111 L831.62994,152.111111 Z M831.62994,154.444444 L827.703393,154.444444 C827.472106,154.444444 827.333333,154.6 827.333333,154.755556 L827.333333,154.911111 C827.333333,155.105556 827.518363,155.222222 827.703393,155.222222 L831.62994,155.222222 C831.861228,155.222222 832,155.066667 832,154.911111 L832,154.755556 C831.998221,154.6 831.81497,154.444444 831.62994,154.444444 L831.62994,154.444444 Z M830.643959,144.859289 C830.730698,144.776272 830.817438,144.693256 830.860807,144.610239 C831.294505,144.112138 831.337875,143.366584 830.990917,142.828571 C830.643959,142.290559 830.125189,142 829.431273,142 L819.774825,142 C819.601346,142 819.427867,142 819.297757,142.041508 C818.563807,142.205945 818,142.868483 818,143.615634 C818,144.072226 818.173479,144.485714 818.520437,144.776272 C819.774825,146.018331 821.03088,147.178969 822.286936,148.339608 C822.330306,148.381116 822.330306,148.422624 822.330306,148.464133 L822.330306,152.23501 C822.331974,152.242992 822.331974,152.250975 822.333642,152.258957 C822.392024,152.591024 822.842403,152.693199 823.06092,152.428184 C823.114298,152.362728 823.152663,152.295676 823.152663,152.23501 L823.152663,148.298099 C823.152663,148.132066 823.109294,147.966032 822.979184,147.841507 C821.724797,146.640957 820.598851,145.43881 819.342795,144.278172 C819.256056,144.195155 819.212686,144.153647 819.169316,144.07063 C818.995837,143.863088 818.952467,143.655546 819.039207,143.408092 C819.169316,143.117533 819.429535,142.828571 819.774825,142.828571 L829.518012,142.828571 C829.99508,142.828571 830.34037,143.366584 830.210261,143.823176 C830.166891,143.98921 830.080151,144.072226 829.950042,144.196751 C828.608915,145.43881 827.30949,146.682465 825.968363,147.966032 C825.838253,148.090557 825.751514,148.215082 825.751514,148.422624 L825.751514,154.928266 C825.751514,154.961792 825.768195,154.998511 825.793216,155.035229 C825.958354,155.276297 826.321993,155.28428 826.510485,155.059177 C826.548851,155.014475 826.573872,154.968177 826.573872,154.928266 L826.573872,148.670078 C826.573872,148.62857 826.573872,148.587061 826.617241,148.545553 C827.960036,147.261986 829.387903,146.059839 830.643959,144.859289 Z" id="Shape"></path>
        </g>
    </g>
</svg>