<?xml version="1.0" standalone="no"?><!DOCTYPE svg PUBLIC "-//W3C//DTD SVG 1.1//EN" "http://www.w3.org/Graphics/SVG/1.1/DTD/svg11.dtd"><svg class="icon" width="200px" height="200.00px" viewBox="0 0 1024 1024" version="1.1" xmlns="http://www.w3.org/2000/svg"><path d="M834.133333 46.933333c81.066667 0 145.066667 64 145.066667 145.066667 0 78.933333-66.133333 145.066667-145.066667 145.066667-40.533333 0-76.8-17.066667-104.533333-42.666667l-34.133333 36.266667c38.4 38.4 61.866667 91.733333 61.866666 151.466666 0 57.6-21.333333 108.8-57.6 147.2l59.733334 55.466667c27.733333-23.466667 64-36.266667 102.4-36.266667 89.6 0 162.133333 72.533333 162.133333 162.133334 0 89.6-72.533333 162.133333-162.133333 162.133333-89.6 0-162.133333-72.533333-162.133334-162.133333 0-40.533333 14.933333-76.8 38.4-104.533334l-59.733333-55.466666c-36.266667 29.866667-83.2 46.933333-134.4 46.933333-57.6 0-108.8-21.333333-147.2-57.6l-29.866667 29.866667c21.333333 32 34.133333 70.4 34.133334 110.933333 0 110.933333-89.6 200.533333-200.533334 200.533333s-200.533333-89.6-200.533333-200.533333 89.6-198.4 200.533333-198.4c57.6 0 110.933333 25.6 147.2 66.133333l27.733334-29.866666c-29.866667-36.266667-49.066667-83.2-49.066667-134.4 0-44.8 12.8-85.333333 36.266667-119.466667l-66.133334-59.733333c-21.333333 21.333333-51.2 34.133333-85.333333 34.133333-66.133333 0-119.466667-53.333333-119.466667-119.466667 0-66.133333 53.333333-119.466667 119.466667-119.466666 66.133333 0 119.466667 53.333333 119.466667 119.466666 0 23.466667-6.4 42.666667-17.066667 61.866667l66.133333 59.733333c38.4-42.666667 96-70.4 160-70.4 49.066667 0 93.866667 17.066667 130.133334 44.8l38.4-38.4c-14.933333-23.466667-23.466667-49.066667-23.466667-78.933333 4.266667-87.466667 68.266667-151.466667 149.333333-151.466667z m-401.066666 546.133334h224s4.266667-29.866667 0-46.933334c-4.266667-17.066667-51.2-72.533333-59.733334-74.666666-2.133333 0-17.066667-2.133333-36.266666-2.133334 23.466667-10.666667 40.533333-40.533333 40.533333-68.266666 0-34.133333-25.6-59.733333-57.6-59.733334-32 0-57.6 27.733333-57.6 59.733334 0 27.733333 17.066667 57.6 42.666667 68.266666h-34.133334s-57.6 40.533333-59.733333 78.933334c-4.266667 38.4-2.133333 44.8-2.133333 44.8z" /></svg>