<?xml version="1.0" encoding="UTF-8"?>
<svg width="993px" height="1102px" viewBox="0 0 993 1102" version="1.1" xmlns="http://www.w3.org/2000/svg" xmlns:xlink="http://www.w3.org/1999/xlink">
    <!-- Generator: Sketch 39.1 (31720) - http://www.bohemiancoding.com/sketch -->
    <title>面试通过数</title>
    <desc>Created with Sketch.</desc>
    <defs></defs>
    <g id="上周" stroke="none" stroke-width="1" fill="none" fill-rule="evenodd">
        <g id="面试通过数" fill="#FFFFFF">
            <g transform="translate(67.000000, 127.000000)" id="Group">
                <g>
                    <polygon id="Shape" points="175.989098 358.268784 127.718463 407.207864 382.992167 660.925547 859.18258 149.857308 807.972153 101.984387 380.624144 560.675461"></polygon>
                    <path d="M825.226857,283.489326 L759.028137,303.137873 L765.024831,323.381988 C774.698419,356.03476 779.604962,390.056217 779.604962,424.506033 C779.604962,620.355437 620.410118,779.691655 424.733087,779.691655 C229.056055,779.691655 69.8612105,620.356299 69.8612105,424.506033 C69.8612105,228.648872 229.056055,69.3074825 424.733087,69.3074825 C515.538575,69.3074825 601.926625,103.604744 667.984985,165.8816 L683.347855,180.361382 L730.673003,130.033794 L715.317022,115.560906 C636.387814,41.1692987 533.189385,0.199270744 424.733087,0.199270744 C367.527686,0.199270744 312.008319,11.4211026 259.713768,33.5518988 C209.24733,54.9156118 163.914766,85.5067385 124.977584,124.474591 C86.0524583,163.438135 55.4920495,208.809844 34.1462621,259.32791 C12.0306528,311.655948 0.816558219,367.22901 0.816558219,424.506031 C0.816558219,481.771848 12.0306528,537.342324 34.1454005,589.6695 C55.4920486,640.188428 86.0524575,685.560137 124.977583,724.524543 C163.916486,763.493258 209.249051,794.084385 259.715489,815.445512 C312.004012,837.577171 367.522519,848.799002 424.733086,848.799002 C481.943652,848.799002 537.463881,837.576308 589.751543,815.445512 C640.227454,794.080076 685.559157,763.489811 724.487727,724.523681 C763.400798,685.575651 793.962929,640.203942 815.321633,589.670363 C837.432075,537.350943 848.642726,481.781329 848.642726,424.506031 C848.642726,383.411891 842.781224,342.780586 831.223551,303.740334 L825.226857,283.489326 L825.226857,283.489326 Z" id="Shape"></path>
                </g>
            </g>
        </g>
    </g>
</svg>