<?xml version="1.0" encoding="UTF-8"?>
<svg width="18px" height="17px" viewBox="0 0 18 17" version="1.1" xmlns="http://www.w3.org/2000/svg" xmlns:xlink="http://www.w3.org/1999/xlink">
    <!-- Generator: Sketch 46.2 (44496) - http://www.bohemiancoding.com/sketch -->
    <title>Shape</title>
    <desc>Created with Sketch.</desc>
    <defs></defs>
    <g id="二期web0124" stroke="none" stroke-width="1" fill-rule="evenodd">
        <g id="人才库-简历上传-信息确认-copy" transform="translate(-21.000000, -76.000000)" fill-rule="nonzero">
            <g id="Group-7" transform="translate(0.000000, 56.000000)">
                <g id="Group-29">
                    <g id="Group-6" transform="translate(21.000000, 20.000000)">
                        <path d="M17.7809998,9.40131922 C17.4891028,9.68989326 17.0158597,9.68989326 16.7238594,9.40131922 L9.00593746,1.79412643 L2.55078901,8.15632955 L3.01986046,8.15632955 C3.84547,8.15632955 4.51476369,8.8186189 4.51476369,9.63473819 L4.51476369,10.4192791 L4.51653977,10.4192791 L4.52052562,14.8693858 C4.57079286,15.3480018 4.74170975,15.4812354 5.27554623,15.5183457 C5.93488561,15.4702534 6.00725062,15.2699234 6.01425167,14.4530896 L6.01129841,12.5757765 C6.0190636,11.7668016 6.68414427,11.1123507 7.50500381,11.1123507 L8.2524451,11.1123507 L8.2524451,11.0942039 L9.7476168,11.0918564 L9.7476168,11.1123507 L10.4950374,11.1123507 C11.3208742,11.1123507 11.9901679,11.773844 11.9901679,12.5899633 L11.9901679,13.3753002 L11.9927907,13.3753002 L11.9941744,14.3048528 L11.9965287,14.0565734 C11.9965287,15.2139518 11.9891559,15.4615984 12.7372581,15.5160186 C13.366466,15.4670894 13.4709244,15.2762513 13.4872396,14.5556429 L13.4806929,15.524694 L13.4916385,15.524694 L13.4902961,14.2985657 C13.4901102,14.3916475 13.4890776,14.475911 13.4872602,14.5556634 L13.4901309,14.1227309 L13.4854841,9.60083276 C13.4854841,9.19247714 13.8201103,8.86211835 14.233132,8.86211835 C14.6459677,8.86211835 14.9806146,9.19249755 14.9806146,9.60083276 L14.9858189,14.7377241 L14.9804287,14.7377241 L14.9804287,15.5223466 C14.9804287,16.3383638 14.3109698,16.9999591 13.4852983,16.9999591 L12.7375885,16.9999591 L11.9901472,16.9999591 C11.1850452,16.9999591 10.5332852,16.3700035 10.5011711,15.5815025 L10.4982179,13.676571 L10.4916299,13.3831796 C10.4944386,13.4218412 10.4960288,13.465953 10.4980114,13.5094116 L10.4964005,12.5687341 L10.0837919,12.5687341 L10.4739103,12.5718573 L10.4916505,13.3831796 C10.4457615,12.7327296 10.2640642,12.597863 9.58584881,12.5695302 L8.35021221,12.5718573 C7.72236731,12.60266 7.55407324,12.7405681 7.50975381,13.3177569 L7.52611029,12.5726942 L7.50636686,12.5726942 L7.50758534,13.3437219 C7.50814294,13.3350669 7.50917556,13.3264119 7.50973316,13.317757 L7.50758534,13.4123493 L7.50973316,14.7377649 L7.50496252,14.7377649 L7.50496252,15.5223875 C7.50496252,16.3384047 6.8355036,17 6.0098321,17 L5.26241146,17 L4.514743,17 C3.71102471,17 3.06052444,16.3723714 3.02615933,15.5862179 L3.02060392,9.61350909 L2.70452333,9.61432559 L2.99842357,9.61587695 L3.00499093,10.6038302 C2.98764316,9.81300219 2.87320979,9.64898632 2.15383472,9.61504004 L0.804900629,9.6183469 C0.594703429,9.63481993 0.379900792,9.57170393 0.219000169,9.41319949 C-0.0730000562,9.1247071 -0.0730000562,8.65631779 0.219000169,8.36774377 L8.41857072,0.286588895 C8.43637284,0.26446155 8.44453043,0.237741351 8.46547166,0.216430528 C8.75720341,-0.0721435094 9.23069443,-0.0721435094 9.52261205,0.216430528 L9.53339246,0.227432961 C9.53380549,0.228249463 9.53438376,0.228249463 9.53477616,0.228249463 C9.53498268,0.229086392 9.53520984,0.229086392 9.53554028,0.229800821 L17.7809998,8.35661876 C18.0730001,8.64525404 18.0730001,9.11272478 17.7809998,9.40131922 Z" id="Shape"></path>
                    </g>
                </g>
            </g>
        </g>
    </g>
</svg>