<?xml version="1.0" encoding="UTF-8"?>
<svg width="20px" height="20px" viewBox="0 0 20 20" version="1.1" xmlns="http://www.w3.org/2000/svg" xmlns:xlink="http://www.w3.org/1999/xlink">
    <!-- Generator: Sketch 46.2 (44496) - http://www.bohemiancoding.com/sketch -->
    <title>Clip 2</title>
    <desc>Created with Sketch.</desc>
    <defs></defs>
    <g id="切图" stroke="none" stroke-width="1" fill-rule="evenodd">
        <path d="M9.406,0.255 C9.383,0.28 9.374,0.311 9.354,0.337 L0.243,9.844 C-0.081,10.183 -0.081,10.735 0.243,11.074 C0.423,11.261 0.661,11.335 0.894,11.316 L2.393,11.312 C3.193,11.352 3.32,11.545 3.339,12.476 L3.331,11.313 L3.005,11.311 L3.357,11.31 L3.362,18.336 C3.401,19.262 4.123,20.001 5.016,20.001 L5.847,20.001 L6.678,20.001 C7.596,20.001 8.339,19.222 8.339,18.262 L8.339,17.338 L8.344,17.338 L8.342,15.779 L8.344,15.668 C8.343,15.679 8.342,15.688 8.342,15.699 L8.34,14.791 L8.344,15.668 C8.394,14.989 8.58,14.826 9.279,14.79 L10.651,14.788 C11.404,14.821 11.607,14.979 11.657,15.744 L11.637,14.79 L11.204,14.787 L11.663,14.787 L11.664,15.893 C11.662,15.842 11.661,15.79 11.657,15.744 L11.664,16.09 L11.668,18.331 C11.703,19.259 12.428,20.001 13.322,20.001 L14.153,20.001 L14.984,20.001 C15.902,20.001 16.645,19.222 16.645,18.262 L16.645,17.338 L16.65,17.338 L16.645,11.295 C16.645,10.814 16.273,10.426 15.814,10.426 C15.356,10.426 14.984,10.814 14.984,11.295 L14.989,16.615 L14.985,17.124 C14.988,17.031 14.989,16.932 14.989,16.822 L14.991,18.264 L14.978,18.264 L14.985,17.124 C14.967,17.972 14.851,18.196 14.153,18.254 C13.321,18.19 13.329,17.899 13.329,16.537 L13.327,16.829 L13.325,15.735 L13.322,15.735 L13.322,14.812 C13.322,13.852 12.579,13.073 11.661,13.073 L10.83,13.073 L10.83,13.05 L9.17,13.052 L9.17,13.073 L8.339,13.073 C7.426,13.073 6.688,13.844 6.679,14.795 L6.683,17.003 C6.675,17.965 6.594,18.201 5.862,18.257 C5.268,18.213 5.078,18.057 5.023,17.493 L5.019,12.258 L5.016,12.258 L5.016,11.335 C5.016,10.375 4.273,9.596 3.356,9.596 L2.835,9.596 L10.007,2.111 L18.582,11.06 C18.907,11.4 19.432,11.4 19.756,11.06 C20.081,10.721 20.081,10.171 19.756,9.831 L10.595,0.27 C10.594,0.27 10.594,0.27 10.594,0.269 C10.593,0.269 10.593,0.269 10.592,0.268 L10.581,0.255 C10.418,0.085 10.206,0 9.993,0 C9.781,0 9.568,0.085 9.406,0.255 Z" id="Clip-2"></path>
    </g>
</svg>