<?xml version="1.0" encoding="UTF-8"?>
<svg width="993px" height="1102px" viewBox="0 0 993 1102" version="1.1" xmlns="http://www.w3.org/2000/svg" xmlns:xlink="http://www.w3.org/1999/xlink">
    <!-- Generator: Sketch 39.1 (31720) - http://www.bohemiancoding.com/sketch -->
    <title>接收简历数</title>
    <desc>Created with Sketch.</desc>
    <defs></defs>
    <g id="上周" stroke="none" stroke-width="1" fill="none" fill-rule="evenodd">
        <g id="接收简历数" fill="#FFFFFF">
            <g transform="translate(43.000000, 165.000000)" id="Group">
                <g>
                    <path d="M206.293968,453.198762 L429.731768,619.653511 C436.50051,624.671483 445.472054,626.819749 454.281817,626.456888 C463.091581,626.818678 472.06168,624.671483 478.831865,619.653511 L702.269666,453.198762 C714.933249,443.765445 714.933249,428.468551 702.269666,419.058782 C689.639305,409.649013 669.104856,409.649013 656.441271,419.058782 L486.668063,545.55814 L486.668063,24.7454883 C486.668063,11.4031192 472.19168,0.617904192 454.280371,0.617904192 C436.402285,0.617904192 421.89268,11.4031192 421.89268,24.7454883 L421.892681,545.55814 L252.08914,419.058782 C239.458779,409.649013 218.92433,409.649013 206.293968,419.058782 C193.630384,428.468551 193.630384,443.765446 206.293968,453.198762 L206.293968,453.198762 Z" id="Shape"></path>
                    <path d="M778.151503,97.1271697 L680.989875,97.1271697 L680.989875,145.382338 L778.151503,145.382338 C813.90623,145.382338 842.92544,167.000936 842.92544,193.637506 L842.92544,676.184908 C842.92544,702.821479 813.90623,724.440076 778.151503,724.440076 L130.412129,724.440076 C94.6574018,724.440076 65.6381919,702.821479 65.6381919,676.184908 L65.6381933,193.636436 C65.6381933,166.999866 94.6574032,145.381268 130.412131,145.381268 L227.573758,145.381268 L227.573758,97.1260996 L130.412131,97.1260996 C58.8694517,97.1260996 0.864255801,140.337606 0.864255801,193.635366 L0.864255801,676.182768 C0.864255801,729.480528 58.8694517,772.692034 130.412131,772.692034 L778.151504,772.692034 C849.694183,772.692034 907.699379,729.479457 907.699379,676.182768 L907.699378,193.636436 C907.699378,140.339747 849.694182,97.1271697 778.151503,97.1271697 L778.151503,97.1271697 Z" id="Shape"></path>
                </g>
            </g>
        </g>
    </g>
</svg>