<?xml version="1.0" encoding="UTF-8"?>
<svg width="993px" height="1102px" viewBox="0 0 993 1102" version="1.1" xmlns="http://www.w3.org/2000/svg" xmlns:xlink="http://www.w3.org/1999/xlink">
    <!-- Generator: Sketch 39.1 (31720) - http://www.bohemiancoding.com/sketch -->
    <title>面试中</title>
    <desc>Created with Sketch.</desc>
    <defs></defs>
    <g id="本周" stroke="none" stroke-width="1" fill="none" fill-rule="evenodd">
        <g id="面试中" fill="#FFFFFF">
            <g id="面试中人数" transform="translate(79.000000, 162.000000)">
                <g id="Group">
                    <path d="M653.108063,421.63862 C648.246216,421.63862 643.384369,420.054791 640.143138,416.887134 C628.798829,410.551821 625.557598,394.713537 633.660676,383.626738 L696.864682,290.180865 C701.726529,283.845551 708.20899,279.094067 717.932684,279.094067 L789.239768,279.094067 L789.239768,47.8551263 L518.596973,47.8551263 L518.596973,55.7742679 C518.596973,68.4448947 507.252664,79.5316937 494.287739,79.5316937 C481.322814,79.5316937 469.978506,68.4448955 469.978506,55.7742679 L469.978506,24.0977006 C469.978506,11.4270738 481.322814,0.340274838 494.287739,0.340274838 L810.307769,0.340274838 C823.272694,0.340274838 834.617003,11.427073 834.617003,24.0977006 L834.617003,302.851492 C834.617003,309.186805 831.375772,315.522118 828.13454,320.273604 C823.272694,325.025089 816.790232,326.608917 810.307769,326.608917 L727.656376,326.608917 L674.176064,410.551821 C669.314218,416.887134 661.21114,421.63862 653.108063,421.63862 L653.108063,421.63862 Z" id="Shape"></path>
                    <path d="M186.370787,676.634985 L24.3092334,676.634985 C11.3443092,676.634985 0,665.548187 0,652.877559 C0,488.15941 123.166781,353.534 273.884026,353.534 C286.848951,353.534 298.19326,364.620798 298.19326,377.291425 C298.19326,389.962053 286.848951,401.048851 273.884026,401.048851 C157.199707,401.04885 61.5833903,502.413865 50.2390819,629.120134 L186.370788,629.120134 C199.335712,629.120134 210.680021,640.206932 210.680021,652.87756 C210.68002,665.548187 199.335711,676.634985 186.370787,676.634985 L186.370787,676.634985 Z" id="Shape"></path>
                    <path d="M698.485298,778 L241.471715,778 C228.506791,778 217.162482,766.913202 217.162482,754.242574 C217.162482,599.027395 330.60557,472.321127 469.978506,472.321127 C609.351442,472.321127 722.79453,599.027395 722.79453,754.242574 C722.79453,766.913202 713.070837,778 698.485298,778 L698.485298,778 Z M267.401564,730.485149 L674.176064,730.485149 C664.452371,613.281851 576.939132,519.835977 471.599122,519.835977 C366.259111,519.835977 277.125257,613.281851 267.401564,730.485149 L267.401564,730.485149 Z" id="Shape"></path>
                    <path d="M469.978507,458.066671 C379.224036,458.066671 304.675722,385.210567 304.675722,296.516179 C304.675722,207.82179 379.224036,134.965686 469.978507,134.965686 C560.732977,134.965686 635.281292,207.82179 635.281292,296.516179 C635.281292,385.210567 560.732977,458.066671 469.978507,458.066671 L469.978507,458.066671 Z M469.978507,182.480537 C405.153885,182.480537 353.294188,233.163044 353.294188,296.516179 C353.294188,359.869313 405.153885,410.551821 469.978507,410.551821 C534.803129,410.551821 586.662826,359.869313 586.662826,296.516179 C586.662826,233.163044 534.803128,182.480537 469.978507,182.480537 L469.978507,182.480537 Z" id="Shape"></path>
                    <path d="M264.160333,304.43532 C181.50894,304.43532 113.443088,237.914529 113.443088,157.139283 C113.443088,76.3640364 181.508941,9.84324591 264.160333,9.84324591 C327.364339,9.84324591 385.706499,49.4389549 406.7745,108.040605 C411.636347,120.711231 405.153885,133.381858 392.18896,138.133343 C379.224036,142.884828 366.259112,136.549515 361.397265,123.878888 C346.811725,84.2831788 307.916952,57.3580966 265.780948,57.3580966 C207.438789,57.3580966 162.061554,103.289119 162.061554,157.139283 C162.061554,212.573275 207.438789,256.92047 264.160333,256.92047 C277.125257,256.92047 288.469566,268.007268 288.469566,280.677895 C288.469566,293.348523 277.125257,304.43532 264.160333,304.43532 L264.160333,304.43532 Z" id="Shape"></path>
                </g>
            </g>
        </g>
    </g>
</svg>