<?xml version="1.0" encoding="UTF-8"?>
<svg width="993px" height="1102px" viewBox="0 0 993 1102" version="1.1" xmlns="http://www.w3.org/2000/svg" xmlns:xlink="http://www.w3.org/1999/xlink">
    <!-- Generator: Sketch 39.1 (31720) - http://www.bohemiancoding.com/sketch -->
    <title>处理简历数</title>
    <desc>Created with Sketch.</desc>
    <defs>
        <filter x="-50%" y="-50%" width="200%" height="200%" filterUnits="objectBoundingBox" id="filter-1">
            <feOffset dx="0" dy="2" in="SourceAlpha" result="shadowOffsetOuter1"></feOffset>
            <feGaussianBlur stdDeviation="2" in="shadowOffsetOuter1" result="shadowBlurOuter1"></feGaussianBlur>
            <feColorMatrix values="0 0 0 0 0   0 0 0 0 0   0 0 0 0 0  0 0 0 0.5 0" type="matrix" in="shadowBlurOuter1" result="shadowMatrixOuter1"></feColorMatrix>
            <feMerge>
                <feMergeNode in="shadowMatrixOuter1"></feMergeNode>
                <feMergeNode in="SourceGraphic"></feMergeNode>
            </feMerge>
        </filter>
    </defs>
    <g id="上周" stroke="none" stroke-width="1" fill="none" fill-rule="evenodd">
        <g id="处理简历数" fill="#FFFFFF">
            <g id="待处理人数" filter="url(#filter-1)" transform="translate(52.000000, 114.000000)">
                <g id="Group">
                    <path d="M356.9,632.3 L223,632.3 L223,562.3 L356.9,562.3 L356.9,632.3 L356.9,632.3 Z M544.3,471.7 L223,471.7 L223,401.7 L544.3,401.7 L544.3,471.7 L544.3,471.7 Z M544.3,311 L223,311 L223,241 L544.3,241 L544.3,311 L544.3,311 Z" id="Shape"></path>
                    <path d="M490.9,873.6 L142.8,873.6 C64.4,873.6 0.7,809.9 0.7,731.5 L0.7,142.5 C0.7,64.1 64.4,0.4 142.8,0.4 L624.7,0.4 C703.1,0.4 766.8,64.1 766.8,142.5 L766.8,463.8 L696.8,463.8 L696.8,142.5 C696.8,102.7 664.5,70.4 624.7,70.4 L142.8,70.4 C103,70.4 70.7,102.7 70.7,142.5 L70.7,731.5 C70.7,771.3 103,803.6 142.8,803.6 L490.9,803.6 L490.9,873.6 L490.9,873.6 Z" id="Shape"></path>
                    <polygon id="Shape" points="583.1 832.7 410.1 619.9 464.4 575.7 590.7 731.1 842.1 501.5 889.3 553.2"></polygon>
                </g>
            </g>
        </g>
    </g>
</svg>