<?xml version="1.0" encoding="UTF-8"?>
<svg width="993px" height="1102px" viewBox="0 0 993 1102" version="1.1" xmlns="http://www.w3.org/2000/svg" xmlns:xlink="http://www.w3.org/1999/xlink">
    <!-- Generator: Sketch 39.1 (31720) - http://www.bohemiancoding.com/sketch -->
    <title>发送offer数</title>
    <desc>Created with Sketch.</desc>
    <defs></defs>
    <g id="上周" stroke="none" stroke-width="1" fill="none" fill-rule="evenodd">
        <g id="发送offer数" fill="#FFFFFF">
            <g transform="translate(62.000000, 123.000000)" id="Shape">
                <path d="M866.235146,374.532132 L866.235146,370.41922 L866.235146,368.362762 C866.235146,366.306306 866.235146,366.306306 864.17758,364.24985 C864.17758,364.24985 864.17758,362.193394 862.120015,362.193393 C862.120015,360.136937 860.06245,360.136937 860.062449,360.136937 L858.004883,358.080481 L788.047651,298.443243 L788.047651,119.531532 C788.047651,72.2330327 748.953904,35.2168165 703.687458,35.2168165 L481.470366,35.2168165 L448.549316,6.42642675 C438.261487,-1.79939876 423.858528,-1.79939876 415.628265,6.42642675 L382.707214,35.2168165 L162.547687,35.2168165 C115.223678,35.2168165 78.1874957,74.2894898 78.1874957,119.531532 L78.1874957,296.386787 L8.23026235,356.024024 L6.172697,358.080481 L4.11513166,360.136937 C4.11513166,360.136937 4.11513166,362.193393 2.05756535,362.193393 C0,366.306306 0,366.306306 0,368.362762 L0,783.766967 C0,822.83964 32.9210504,855.742944 72.0147987,855.742943 L796.277913,855.742943 C835.371661,855.742943 868.292712,822.83964 868.292712,783.766967 L866.235146,374.532132 L866.235146,374.532132 Z M796.277913,372.475676 L788.047651,378.645045 L788.047651,366.306306 L796.277913,372.475676 L796.277913,372.475676 Z M127.569072,119.531532 C127.569072,101.023423 141.972031,86.6282285 160.490122,86.6282285 L703.687458,86.6282285 C722.205549,86.6282285 736.608509,101.023423 736.608509,119.531532 L736.608509,407.435436 L432.08879,586.347147 L127.569072,407.435436 L127.569072,119.531532 L127.569072,119.531532 Z M78.1874957,364.24985 L78.1874957,376.588589 L69.9572324,370.41922 L78.1874957,364.24985 L78.1874957,364.24985 Z M814.796004,783.766967 C814.796004,796.105706 804.508176,804.331532 794.220348,804.331532 L69.9572324,804.331532 C57.6118384,804.331532 49.381576,794.049249 49.381576,783.766967 L49.381576,421.830631 L57.6118384,425.943544 L419.743396,639.815015 C427.973659,643.927928 438.261487,643.927928 446.49175,639.815015 L816.85357,421.830631 L816.85357,783.766967 L814.796004,783.766967 Z"></path>
                <polygon points="380.958333 428.2 244 259.733333 286.9875 224.741667 386.975 347.766667 586 166 623.366667 206.929167"></polygon>
            </g>
        </g>
    </g>
</svg>