<?xml version="1.0" encoding="UTF-8"?>
<svg width="993px" height="1102px" viewBox="0 0 993 1102" version="1.1" xmlns="http://www.w3.org/2000/svg" xmlns:xlink="http://www.w3.org/1999/xlink">
    <!-- Generator: Sketch 39.1 (31720) - http://www.bohemiancoding.com/sketch -->
    <title>感兴趣</title>
    <desc>Created with Sketch.</desc>
    <defs></defs>
    <g id="本周" stroke="none" stroke-width="1" fill="none" fill-rule="evenodd">
        <g id="感兴趣" fill="#FFFFFF">
            <g id="感兴趣人数" transform="translate(36.000000, 112.000000)">
                <path d="M168.79398,891.390433 C160.364437,891.390433 152.645819,886.513895 148.989632,878.9959 C146.856856,874.627335 146.247492,869.852392 147.161538,865.280638 L203.832441,561.614579 L5.89052397,349.282005 C-2.33589744,340.341686 -1.9296544,326.32164 7.00769231,317.990888 C9.95295429,315.146241 13.7107023,313.31754 17.7731327,312.403189 L292.901226,257.034169 L440.469008,12.5977221 C444.937681,5.38451025 452.351616,0.609567198 459.359309,0.609567198 L460.070234,0.609567198 C467.077926,0.609567198 474.593423,5.79088838 478.757414,13.5120729 L620.23155,274.914806 L890.89097,311.895216 C903.078261,313.622323 911.507804,325.000911 909.781271,337.090661 C909.273467,341.052847 907.648495,344.811845 905.007915,347.961276 L746.471572,542.210023 C742.307581,547.391344 736.010814,550.337585 729.409365,550.337585 C724.331327,550.337585 719.45641,548.610478 715.495541,545.359453 C706.05039,537.536674 704.62854,523.618223 712.347157,514.271526 L845.899554,350.907517 L603.169342,317.990888 C596.263211,317.076538 590.068004,312.809567 586.716499,306.612301 L458.24214,69.8970387 L325.60379,288.426879 C322.353846,293.709795 317.072687,297.468793 311.080602,298.687927 L65.2020067,348.266059 L243.745819,539.568565 C248.519175,544.648292 250.55039,551.759909 249.331661,558.668337 L198.551282,830.332118 L445.343924,711.060137 C448.289186,709.637813 451.53913,708.825057 454.890635,708.825057 C458.445262,708.825057 461.999889,709.739408 465.148272,711.36492 L676.089967,821.18861 L553.607692,533.980866 C551.271795,528.494761 551.170234,522.500683 553.404571,517.014579 C555.638907,511.528474 559.802899,507.261503 565.287179,504.924829 C568.02932,503.705695 570.974582,503.096128 574.021405,503.096128 C582.857191,503.096128 590.880491,508.379043 594.333556,516.506606 L740.987291,860.505695 C743.323188,865.9918 743.323188,871.985877 741.088852,877.573576 C738.854515,883.059681 734.690524,887.326651 729.206243,889.561731 C726.362542,890.780866 723.518841,891.288838 720.573579,891.288838 C717.018952,891.288838 713.565886,890.476082 710.417503,888.748975 L454.585953,755.863326 L178.442252,889.155353 C175.395429,890.577677 172.145485,891.390433 168.79398,891.390433 L168.79398,891.390433 Z M299.096433,507.464692 C292.901226,507.464692 286.909142,504.823235 282.846711,500.251481 L212.769788,422.633257 C204.543367,413.591344 205.254292,399.571298 214.2932,391.342141 C218.35563,387.583144 223.636789,385.551253 229.12107,385.551253 C235.316276,385.551253 241.308361,388.192711 245.472352,392.866059 L315.549275,470.484282 C323.775697,479.526196 323.064771,493.546241 314.025864,501.775399 C309.963434,505.331207 304.682274,507.363098 299.096433,507.464692 L299.096433,507.464692 Z" id="Shape"></path>
            </g>
        </g>
    </g>
</svg>