<?xml version="1.0" encoding="UTF-8"?>
<svg width="993px" height="1102px" viewBox="0 0 993 1102" version="1.1" xmlns="http://www.w3.org/2000/svg" xmlns:xlink="http://www.w3.org/1999/xlink">
    <!-- Generator: Sketch 39.1 (31720) - http://www.bohemiancoding.com/sketch -->
    <title>待确认</title>
    <desc>Created with Sketch.</desc>
    <defs></defs>
    <g id="本周" stroke="none" stroke-width="1" fill="none" fill-rule="evenodd">
        <g id="待确认" fill="#FFFFFF">
            <g id="待确认人数" transform="translate(48.000000, 114.000000)">
                <g id="Group">
                    <path d="M767.513535,824.631548 L641.059007,824.631548 C623.311003,824.631548 610,811.320545 610,793.572541 L610,636.059007 C610,618.311003 623.311003,605 641.059007,605 C658.807011,605 672.118014,618.311003 672.118014,636.059007 L672.118014,762.513535 L767.513535,762.513535 C785.261538,762.513535 798.572541,775.824537 798.572541,793.572541 C798.572541,811.320545 783.043038,824.631548 767.513535,824.631548" id="Path"></path>
                    <path d="M704.5,923 C649.811475,923 596.831967,900.782787 557.52459,861.47541 C518.217213,822.168033 496,770.897541 496,714.5 C496,659.811475 518.217213,606.831967 557.52459,567.52459 C596.831967,528.217213 648.102459,506 704.5,506 C759.188525,506 812.168033,528.217213 851.47541,567.52459 C890.782787,606.831967 913,658.102459 913,714.5 C913,769.188525 890.782787,822.168033 851.47541,861.47541 C810.459016,900.782787 759.188525,923 704.5,923 M704.5,557.270492 C617.340164,557.270492 545.561475,629.04918 545.561475,716.209016 C545.561475,803.368852 617.340164,875.147541 704.5,875.147541 C791.659836,875.147541 863.438525,803.368852 863.438525,716.209016 C861.729508,627.340164 791.659836,557.270492 704.5,557.270492" id="Shape"></path>
                    <path d="M355.9,632.3 L222,632.3 L222,562.3 L355.9,562.3 L355.9,632.3 L355.9,632.3 Z M543.3,471.7 L222,471.7 L222,401.7 L543.3,401.7 L543.3,471.7 L543.3,471.7 Z M543.3,311 L222,311 L222,241 L543.3,241 L543.3,311 L543.3,311 Z" id="Shape"></path>
                    <path d="M490.2,873.2 L142.1,873.2 C63.7,873.2 0,809.5 0,731.1 L0,142.1 C0,63.7 63.7,0 142.1,0 L624,0 C702.4,0 766.1,63.7 766.1,142.1 L766.1,463.4 L696.1,463.4 L696.1,142.1 C696.1,102.3 663.8,70 624,70 L142.1,70 C102.3,70 70,102.3 70,142.1 L70,731.1 C70,770.9 102.3,803.2 142.1,803.2 L490.2,803.2 L490.2,873.2 L490.2,873.2 Z" id="Shape"></path>
                </g>
            </g>
        </g>
    </g>
</svg>