<?xml version="1.0" encoding="UTF-8"?>
<svg width="993px" height="1102px" viewBox="0 0 993 1102" version="1.1" xmlns="http://www.w3.org/2000/svg" xmlns:xlink="http://www.w3.org/1999/xlink">
    <!-- Generator: Sketch 39.1 (31720) - http://www.bohemiancoding.com/sketch -->
    <title>已入职</title>
    <desc>Created with Sketch.</desc>
    <defs></defs>
    <g id="本周" stroke="none" stroke-width="1" fill="none" fill-rule="evenodd">
        <g id="已入职" fill="#FFFFFF">
            <g id="已入职人数" transform="translate(51.000000, 148.000000)">
                <g id="Group">
                    <path d="M55.9439766,722.66786 L55.9439766,167.797394 C55.9439766,160.506255 61.886076,154.578442 69.1772152,154.578442 L344.986356,154.578442 C351.848905,201.771347 392.571115,238.146425 441.635529,238.146425 C490.699943,238.146425 531.433379,201.771347 538.297969,154.578442 L822.569728,154.578442 C829.847601,154.578442 835.78868,160.506256 835.788681,167.797394 L835.788681,493.79651 L891.609517,493.79651 L891.609517,167.797394 C891.609517,129.734485 860.645903,98.7576046 822.569728,98.7576056 L539.322504,98.7576056 L539.322504,28.8167567 C539.322504,13.4028093 526.839299,0.906337779 511.412085,0.906337779 L371.872239,0.906337779 C356.459312,0.906337779 343.96182,13.4028093 343.961821,28.8167567 L343.961821,98.756585 L69.1772152,98.756585 C31.1000205,98.756585 0.123139853,129.733466 0.123139853,167.796374 L0.123139853,722.666839 C0.123139853,760.729748 31.1000205,791.706629 69.1772152,791.706629 L518.33382,791.706629 L518.33382,735.885792 L69.1772152,735.885792 C61.886076,735.886812 55.9439766,729.958999 55.9439766,722.66786 L55.9439766,722.66786 Z M399.782657,56.7271745 L483.500647,56.7271745 L483.500647,140.45843 C483.500647,163.544146 464.721244,182.324568 441.634509,182.324568 C418.547774,182.324568 399.782657,163.545165 399.782657,140.45843 L399.782657,56.7271745 L399.782657,56.7271745 Z" id="Shape"></path>
                    <path d="M111.314794,565.725203 L111.314794,617.593824 C111.314794,633.006751 123.812286,645.504243 139.225212,645.504242 L481.891392,645.504242 C497.318605,645.504242 509.801811,633.00675 509.80181,617.593824 L509.80181,565.725203 C509.803746,555.152672 503.831033,545.486817 494.374597,540.758792 L391.509842,489.353456 L418.11204,450.649703 C421.305226,445.995885 423.015607,440.484816 423.018379,434.840841 L423.018379,353.140287 C423.018379,292.481482 374.542766,244.959992 312.644108,244.959992 C250.758717,244.959992 202.269837,292.481482 202.269838,353.140287 L202.269838,434.840841 C202.268401,440.638605 204.073573,446.292743 207.434352,451.017066 L234.540653,489.13508 L127.164475,540.55368 C117.476559,545.193925 111.312485,554.983342 111.314794,565.725203 L111.314794,565.725203 Z M167.136651,583.305572 L288.563451,525.15402 C295.990411,521.599693 301.467413,514.945419 303.527379,506.973624 C305.584254,498.997946 304.018669,490.521089 299.248617,483.806272 L258.091696,425.927181 L258.091696,353.139267 C258.091696,323.783887 282.049899,300.779808 312.645129,300.779808 C343.240359,300.779808 367.198562,323.783887 367.198562,353.139267 L367.198562,426.17311 L327.336595,484.174656 C322.767486,490.832355 321.301416,499.14095 323.316009,506.960357 C325.331181,514.778801 330.6352,521.340524 337.857469,524.949929 L453.983014,582.979027 L453.983014,589.684425 L167.136651,589.684425 L167.136651,583.305572 L167.136651,583.305572 Z M882.20604,570.822367 C870.676959,560.683142 852.9874,561.746455 842.820624,573.357173 L696.753958,739.429825 L596.04236,662.430501 C583.804063,653.082128 566.305331,655.411823 556.901853,667.65012 C547.55348,679.901682 549.897461,697.413681 562.134737,706.776341 L683.561538,799.597794 C688.426523,803.325531 694.386397,805.342288 700.515349,805.334782 C708.542727,805.342512 716.182817,801.885129 721.47546,795.849669 L884.740846,610.220027 C894.907622,598.637883 893.789205,581.002408 882.20604,570.822367 L882.20604,570.822367 Z M671.895716,495.540465 C687.322929,495.540465 699.806135,483.042973 699.806134,467.630046 C699.806133,452.217119 687.322929,439.719627 671.895716,439.719628 L558.482536,439.719628 C543.055323,439.719628 530.572117,452.21712 530.572117,467.630046 C530.572117,483.042972 543.055322,495.540465 558.482536,495.540465 L671.895716,495.540465 L671.895716,495.540465 Z M558.482536,321.400108 C543.055323,321.400108 530.572117,333.8976 530.572117,349.310527 C530.572117,364.723454 543.055322,377.220946 558.482536,377.220945 L736.084269,377.220945 C751.511482,377.220945 763.994688,364.723453 763.994688,349.310527 C763.994688,333.896579 751.511483,321.400108 736.084269,321.400108 L558.482536,321.400108 L558.482536,321.400108 Z" id="Shape"></path>
                </g>
            </g>
        </g>
    </g>
</svg>