<?xml version="1.0" encoding="UTF-8"?>
<svg width="993px" height="1102px" viewBox="0 0 993 1102" version="1.1" xmlns="http://www.w3.org/2000/svg" xmlns:xlink="http://www.w3.org/1999/xlink">
    <!-- Generator: Sketch 39.1 (31720) - http://www.bohemiancoding.com/sketch -->
    <title>下载简历数</title>
    <desc>Created with Sketch.</desc>
    <defs></defs>
    <g id="本周" stroke="none" stroke-width="1" fill="none" fill-rule="evenodd">
        <g id="下载简历数" fill="#FFFFFF">
            <g transform="translate(16.000000, 138.000000)" id="Shape">
                <path d="M602,646.8 C589.2,634 570,634 557.2,646.8 L512.4,698 L512.4,442 C512.4,422.8 499.6,410 480.4,410 L474,410 C454.8,410 442,422.8 442,442 L442,704.4 L390.8,653.2 C378,640.4 358.8,640.4 346,653.2 L339.6,659.6 C326.8,672.4 326.8,691.6 339.6,704.4 L454.8,819.6 C461.2,826 467.6,826 480.4,826 C486.8,826 499.6,826 506,819.6 L621.2,704.4 C634,691.6 634,672.4 621.2,659.6 L602,646.8 L602,646.8 Z M909.2,358.8 C883.6,333.2 858,307.6 826,301.2 C819.6,218 787.6,147.6 730,96.4 C672.4,38.8 589.2,0.4 499.6,0.4 C435.6,0.4 371.6,19.6 320.4,58 C275.6,90 237.2,134.8 211.6,186 C154,192.4 102.8,224.4 70.8,262.8 C26,307.6 0.4,371.6 0.4,435.6 C0.4,506 26,570 70.8,614.8 C115.6,659.6 179.6,691.6 243.6,691.6 L243.6,614.8 C198.8,614.8 154,595.6 122,563.6 C90,531.6 70.8,486.8 70.8,435.6 C70.8,390.8 90,346 115.6,314 C147.6,282 186,262.8 230.8,256.4 C243.6,256.4 256.4,250 262.8,230.8 C282,186 314,141.2 358.8,115.6 C397.2,90 448.4,70.8 499.6,70.8 C570,70.8 634,102.8 678.8,147.6 C723.6,192.4 755.6,256.4 755.6,333.2 C755.6,352.4 768.4,365.2 787.6,371.6 C813.2,378 838.8,390.8 858,410 C877.2,429.2 883.6,461.2 883.6,486.8 C883.6,518.8 870.8,550.8 851.6,570 C832.4,589.2 800.4,602 768.4,602 L755.6,602 L755.6,678.8 L768.4,678.8 C819.6,678.8 870.8,653.2 902.8,621.2 C934.8,582.8 960.4,538 960.4,480.4 C954,435.6 934.8,397.2 909.2,358.8 L909.2,358.8 Z"></path>
            </g>
        </g>
    </g>
</svg>