<?xml version="1.0" encoding="UTF-8"?>
<svg width="993px" height="1102px" viewBox="0 0 993 1102" version="1.1" xmlns="http://www.w3.org/2000/svg" xmlns:xlink="http://www.w3.org/1999/xlink">
    <!-- Generator: Sketch 39.1 (31720) - http://www.bohemiancoding.com/sketch -->
    <title>在线职位数</title>
    <desc>Created with Sketch.</desc>
    <defs></defs>
    <g id="本周" stroke="none" stroke-width="1" fill="none" fill-rule="evenodd">
        <g id="在线职位数" fill="#FFFFFF">
            <g transform="translate(98.000000, 152.000000)" id="Shape">
                <path d="M756.59284,762.792926 C731.158148,785.16498 698.766674,798 667.725721,798 L116.167447,798 C52.1131406,798 0,745.882963 0,681.828656 L0,128.870766 C0,97.7308418 12.647209,65.5895215 34.6927383,40.6894277 C57.925916,14.4497227 87.866502,0 118.990061,0 L434.059008,0 L434.059008,68.7113848 L117.578754,68.7113848 C89.8513711,68.7113848 67.2961816,91.2673535 67.2961816,118.993957 L67.2961816,680.425143 C67.2961816,707.374787 89.2178027,729.296408 116.167447,729.296408 L678.993574,727.885102 C706.736543,727.885102 729.296408,705.329133 729.296408,677.602529 L729.296408,363.940213 L798,363.940213 L798,679.017732 C798,709.109502 782.908137,739.643133 756.59284,762.792926 L756.59284,762.792926 Z M763.650152,264.786375 C744.707004,264.786375 729.296408,249.375779 729.296408,230.436527 L728.036285,110.585344 L310.886461,507.089256 C304.0606,513.87927 295.10492,517.276225 286.15002,517.276225 C277.170961,517.276225 268.191902,513.859008 261.357469,507.033146 C254.43965,500.115328 250.803451,491.251605 251.110494,482.06915 C251.393379,473.56858 255.102053,465.761584 261.549176,460.071937 L673.363934,67.4715234 L566.231654,68.7113848 C547.216811,68.7113848 531.806215,53.2968926 531.806215,34.3537441 C531.806215,15.4105957 547.216811,0 566.159959,0 L762.238846,0 C780.855469,0 796.588693,15.0879668 796.588693,32.9424375 L796.588693,230.173904 C797.310322,238.969828 794.41991,247.410393 788.431014,253.965838 C782.154557,260.843133 773.120168,264.786375 763.650152,264.786375 L763.650152,264.786375 Z"></path>
            </g>
        </g>
    </g>
</svg>