<?xml version="1.0" standalone="no"?><!DOCTYPE svg PUBLIC "-//W3C//DTD SVG 1.1//EN" "http://www.w3.org/Graphics/SVG/1.1/DTD/svg11.dtd"><svg t="1523933303975" class="icon" style="" viewBox="0 0 1024 1024" version="1.1" xmlns="http://www.w3.org/2000/svg" p-id="1362" xmlns:xlink="http://www.w3.org/1999/xlink" width="200" height="200"><defs><style type="text/css"></style></defs><path d="M877.713546 73.143727q0 149.137987-60.854735 263.679473t-152.283124 175.176793q91.428389 60.562165 152.283124 175.176793t60.854735 263.679473l54.857033 0q7.972555 0 13.165688 5.11999t5.11999 13.165688l0 36.571355q0 7.972555-5.11999 13.165688t-13.165688 5.11999l-841.141175 0q-7.972555 0-13.165688-5.11999t-5.11999-13.165688l0-36.571355q0-7.972555 5.11999-13.165688t13.165688-5.11999l54.857033 0q0-149.137987 60.854735-263.679473t152.283124-175.176793q-91.428389-60.562165-152.283124-175.176793t-60.854735-263.679473l-54.857033 0q-7.972555 0-13.165688-5.11999t-5.11999-13.165688l0-36.571355q0-7.972555 5.11999-13.165688t13.165688-5.11999l841.141175 0q7.972555 0 13.165688 5.11999t5.11999 13.165688l0 36.571355q0 7.972555-5.11999 13.165688t-13.165688 5.11999l-54.857033 0zM804.570835 73.143727l-585.141687 0q0 37.741639 5.11999 73.142711l574.828565 0q5.11999-34.889073 5.11999-73.142711zM804.570835 950.856257q0-74.312994-19.455961-142.555143t-51.711897-118.856905-72.264998-86.820398-83.455833-53.979321l-131.437451 0q-43.44677 17.700536-83.455833 53.979321t-72.264998 86.820398-51.711897 118.856905-19.455961 142.555143l585.141687 0z" p-id="1363"></path></svg>