<?xml version="1.0" standalone="no"?><!DOCTYPE svg PUBLIC "-//W3C//DTD SVG 1.1//EN" "http://www.w3.org/Graphics/SVG/1.1/DTD/svg11.dtd"><svg class="icon" width="200px" height="200.00px" viewBox="0 0 1024 1024" version="1.1" xmlns="http://www.w3.org/2000/svg"><path d="M288 320c-17.7 0-32 14.3-32 32s14.3 32 32 32h448c17.7 0 32-14.3 32-32s-14.3-32-32-32h-96V192c-7.2-71.9-62.2-128-128-128s-120.8 56.1-128 128v128h-96z m160-128c5.9-36.5 33-64 64-64s58.1 27.5 64 64v128H448V192z m32 32h64v-64h-64v64z m384 448c0-17.7-14.3-32-32-32H608c-17.7 0-32 14.3-32 32s14.3 32 32 32h224c17.7 0 32-14.3 32-32z m-256 96c-17.7 0-32 14.3-32 32s14.3 32 32 32h192c17.7 0 32-14.3 32-32s-14.3-32-32-32H608z m224-256H608c-17.7 0-32 14.3-32 32s14.3 32 32 32h224c17.7 0 32-14.3 32-32s-14.3-32-32-32z m64-320H704v64h128c35.3 0 64 28.7 64 64v512c0 35.3-28.7 64-64 64H192c-35.3 0-64-28.7-64-64V320c0-35.3 28.7-64 64-64h128v-64H128c-35.3 0-64 28.7-64 64v640c0 35.3 28.7 64 64 64h768c35.3 0 64-28.7 64-64V256c0-35.3-28.7-64-64-64zM160 736c0 53 86 96 192 96s192-43 192-96c0-34.5-36.3-64.7-90.8-81.6C470 632.7 480 605.5 480 576c0-70.7-57.3-128-128-128s-128 57.3-128 128c0 29.5 10 56.7 26.8 78.4-54.5 16.9-90.8 47.1-90.8 81.6z m192-224c35.3 0 64 28.7 64 64s-28.7 64-64 64-64-28.7-64-64 28.7-64 64-64z m0 192c70.7 0 128 14.3 128 32s-57.3 32-128 32-128-14.3-128-32 57.3-32 128-32z" /></svg>