<?xml version="1.0" encoding="UTF-8"?>
<svg width="14px" height="26px" viewBox="0 0 14 26" version="1.1" xmlns="http://www.w3.org/2000/svg" xmlns:xlink="http://www.w3.org/1999/xlink">
    <!-- Generator: Sketch 46.2 (44496) - http://www.bohemiancoding.com/sketch -->
    <title>Shape</title>
    <desc>Created with Sketch.</desc>
    <defs></defs>
    <g id="二期web0124" stroke="none" stroke-width="1" fill-rule="evenodd">
        <g id="人才库-简历上传-信息确认-copy" transform="translate(-24.000000, -190.000000)" fill-rule="nonzero">
            <g id="Group-7" transform="translate(0.000000, 56.000000)">
                <path d="M38,150.607828 L36.3102515,150.607828 L33.7431335,143.014957 L38,148.894032 L38,150.607828 L38,150.607828 Z M26.8839458,134 L26.8839458,134.196343 L28.0673114,139.780904 L31.7094778,139.780904 L33.0336557,134 L26.8839458,134 L26.8839458,134 Z M30.7048356,138.075523 L29.172147,138.075523 L28.6793037,135.753064 L28.6793037,135.671722 L31.2382979,135.671722 L30.7048356,138.075523 L30.7048356,138.075523 Z M31.7582205,140.908475 L28.0673114,140.908475 L24,153.940052 L29.9601547,159.131926 L35.7740812,153.917612 L31.7582205,140.908475 L31.7582205,140.908475 Z M29.9655706,157.050688 L25.7384913,153.398705 L28.8174081,142.706417 L31.0568665,142.706417 L34.0058027,153.485657 L29.9655706,157.050688 L29.9655706,157.050688 Z" id="Shape"></path>
            </g>
        </g>
    </g>
</svg>