<svg xmlns="http://www.w3.org/2000/svg" xmlns:xlink="http://www.w3.org/1999/xlink" viewBox="0 0 30 30"><defs><style>.cls-1,.cls-2{}.cls-2{clip-rule:evenodd;}.cls-3{}.cls-4{clip-path:url(#clip-path);}.cls-5{clip-path:url(#clip-path-2);}.cls-6{clip-path:url(#clip-path-3);}.cls-7{clip-path:url(#clip-path-4);}.cls-8{clip-path:url(#clip-path-5);}.cls-9{clip-path:url(#clip-path-6);}.cls-10{clip-path:url(#clip-path-7);}.cls-11{clip-path:url(#clip-path-8);}.cls-12{clip-path:url(#clip-path-9);}.cls-13{clip-path:url(#clip-path-10);}</style><clipPath id="clip-path"><circle class="cls-1" cx="11.3" cy="10.3" r="0.9"/></clipPath><clipPath id="clip-path-2"><polygon class="cls-2" points="19 18 18.5 20.64 19.5 21.26 20.41 20.64 20.01 18 19 18"/></clipPath><clipPath id="clip-path-3"><polygon class="cls-2" points="18.5 16.8 20.5 16.8 20.15 17.8 18.86 17.8 18.5 16.8"/></clipPath><clipPath id="clip-path-4"><circle class="cls-1" cx="19.4" cy="12.54" r="3.5"/></clipPath><clipPath id="clip-path-5"><circle class="cls-1" cx="24.04" cy="20.52" r="0.92"/></clipPath><clipPath id="clip-path-6"><circle class="cls-1" cx="14.96" cy="20.52" r="0.92"/></clipPath><clipPath id="clip-path-7"><path class="cls-2" d="M14,20.51a6.08,6.08,0,0,1,0-.61,5.5,5.5,0,0,1,11,0,6.08,6.08,0,0,1,0,.61H23.12a4.07,4.07,0,0,0,.05-.61,3.67,3.67,0,0,0-7.34,0,4.07,4.07,0,0,0,.05.61Z"/></clipPath><clipPath id="clip-path-8"><path class="cls-2" d="M25,8a3,3,0,0,0-3-3H8A3,3,0,0,0,5,8V22a3,3,0,0,0,3,3H20V23.3H8.8a2,2,0,0,1-2-2V8.7a2,2,0,0,1,2-2H21.4a2,2,0,0,1,2,2V9H25"/></clipPath><clipPath id="clip-path-9"><circle class="cls-1" cx="19.95" cy="24.15" r="0.85"/></clipPath><clipPath id="clip-path-10"><circle class="cls-1" cx="24.2" cy="8.9" r="0.8"/></clipPath></defs><title>资源 4</title><g id="图层_2" data-name="图层 2"><g id="图层_1-2" data-name="图层 1"><rect class="cls-3" x="5.57" y="9.4" width="5.85" height="1.8"/><g class="cls-4"><rect class="cls-3" x="5.4" y="4.4" width="11.8" height="11.8"/></g><g class="cls-5"><rect class="cls-3" x="13.5" y="13" width="11.91" height="13.26"/></g><g class="cls-6"><rect class="cls-3" x="13.5" y="11.8" width="12" height="11"/></g><g class="cls-7"><path class="cls-3" d="M19.4,17.64a5.1,5.1,0,1,1,5.1-5.1A5.11,5.11,0,0,1,19.4,17.64Zm0-7a1.9,1.9,0,1,0,1.9,1.9A1.9,1.9,0,0,0,19.4,10.64Z"/></g><g class="cls-8"><rect class="cls-3" x="18.13" y="14.6" width="11.83" height="11.83"/></g><g class="cls-9"><rect class="cls-3" x="9.04" y="14.6" width="11.83" height="11.83"/></g><g class="cls-10"><rect class="cls-3" x="9" y="9.4" width="21" height="16.11"/></g><g class="cls-11"><rect class="cls-3" width="30" height="30"/></g><g class="cls-12"><rect class="cls-3" x="14.1" y="18.3" width="11.7" height="11.7"/></g><g class="cls-13"><rect class="cls-3" x="18.4" y="3.1" width="11.6" height="11.6"/></g></g></g></svg>