<?xml version="1.0" encoding="UTF-8"?>
<svg width="20px" height="20px" viewBox="0 0 20 20" version="1.1" xmlns="http://www.w3.org/2000/svg" xmlns:xlink="http://www.w3.org/1999/xlink">
    <!-- Generator: Sketch 46.2 (44496) - http://www.bohemiancoding.com/sketch -->
    <title>Combined Shape</title>
    <desc>Created with Sketch.</desc>
    <defs></defs>
    <g id="切图" stroke="none" stroke-width="1" fill-rule="evenodd">
        <path d="M16.9666757,9.98304488 C18.7654412,10.8874156 20,12.7498514 20,14.9 C20,15.106 19.988,15.311 19.967,15.511 L19.9599927,15.511 C19.9599972,15.5123327 19.96,15.513666 19.96,15.515 C19.96,16.02 19.55,16.43 19.044,16.43 C18.54,16.43 18.13,16.02 18.13,15.515 C18.13,15.513666 18.1300028,15.5123327 18.1300085,15.511 L18.116,15.511 C18.149,15.312 18.167,15.108 18.167,14.9 C18.167,12.875 16.525,11.234 14.5,11.234 C12.474,11.234 10.833,12.875 10.833,14.9 C10.833,15.108 10.851,15.312 10.884,15.511 L10.8699927,15.511 C10.8699972,15.5123327 10.87,15.513666 10.87,15.515 C10.87,16.02 10.46,16.43 9.954,16.43 C9.449,16.43 9.04,16.02 9.04,15.515 C9.04,15.513666 9.04000284,15.5123327 9.04000852,15.511 L9.034,15.511 C9.011,15.311 9,15.106 9,14.9 C9,12.7498514 10.2345588,10.8874156 12.0333243,9.98304488 C11.395133,9.34903456 11,8.47066141 11,7.5 C11,5.56700338 12.5670034,4 14.5,4 C16.4329966,4 18,5.56700338 18,7.5 C18,8.47066141 17.604867,9.34903456 16.9666757,9.98304488 Z M18.4061824,4 L18.4,4 L18.4,3.7 C18.4,2.595 17.505,1.7 16.4,1.7 L3.8,1.7 C2.696,1.7 1.8,2.595 1.8,3.7 L1.8,4.4 L6.42,4.4 L6.42,4.40793541 C6.86013442,4.46662331 7.199,4.84369304 7.199,5.3 C7.199,5.75630696 6.86013442,6.13337669 6.42,6.19206459 L6.42,6.2 L1.8,6.2 L1.8,16.3 C1.8,17.405 2.696,18.3 3.8,18.3 L15,18.3 L15,18.3014409 C15.4466584,18.3272579 15.8,18.6967859 15.8,19.15 C15.8,19.6022498 15.4466584,19.9736031 15,19.9995517 L15,20.001 L3,20.001 C1.343,20.001 0,18.657 0,17 L0,3 C0,1.343 1.343,0 3,0 L17.001,0 C18.657,0 20,1.343 20,3 L20,4 L19.9928343,4 C19.9437918,4.39476057 19.6081324,4.7 19.2,4.7 C18.7918676,4.7 18.4553556,4.39476057 18.4061824,4 Z M13.9999,13.0003 L15.0099,13.0003 L15.4079,15.6393 L14.4999,16.2623 L13.5009,15.6393 L13.9999,13.0003 Z M13.5004,11.7997 L15.5004,11.7997 L15.1524,12.7997 L13.8614,12.7997 L13.5004,11.7997 Z M14.5000976,9.40000606 C15.5494386,9.40000606 16.4000976,8.54934709 16.4000976,7.50000608 C16.4000976,6.45066507 15.5494386,5.6000061 14.5000976,5.6000061 C13.4507566,5.6000061 12.6000977,6.45066507 12.6000977,7.50000608 C12.6000977,8.54934709 13.4507566,9.40000606 14.5000976,9.40000606 Z" id="Combined-Shape"></path>
    </g>
</svg>