<?xml version="1.0" encoding="UTF-8"?>
<svg width="21px" height="16px" viewBox="0 0 21 16" version="1.1" xmlns="http://www.w3.org/2000/svg" xmlns:xlink="http://www.w3.org/1999/xlink">
    <!-- Generator: Sketch 46.2 (44496) - http://www.bohemiancoding.com/sketch -->
    <title>组织架构</title>
    <desc>Created with Sketch.</desc>
    <defs></defs>
    <g id="第一阶段" stroke="none" stroke-width="1" fill="none" fill-rule="evenodd">
        <g id="2新招聘需求/职位编辑-" transform="translate(-1051.000000, -216.000000)" fill-rule="nonzero" fill="#FFFFFF">
            <g id="Group-4" transform="translate(816.000000, 211.000000)">
                <g id="组织架构" transform="translate(235.000000, 5.000000)">
                    <path d="M10.4746507,3.99072437 C9.51635683,3.99072437 8.55767646,3.9791223 7.59938264,3.99552523 C7.16024518,4.00352666 6.99518206,3.80149046 7.00098053,3.36301187 C7.0121909,2.45804967 7.01451029,1.55348756 7.00020741,0.648925422 C6.99286267,0.20284548 7.18034655,0.00200947683 7.6009289,0.00240955635 C9.53568508,0.00440990705 11.4704412,0.00721041679 13.4048108,9.12612256e-06 C13.8393095,-0.00159116851 14.0039861,0.207246261 13.9970279,0.646124936 C13.9834982,1.53228377 13.9757668,2.41924274 13.9993473,3.30500149 C14.0136502,3.84309794 13.7933083,4.01392854 13.2965727,3.9991259 C12.3564475,3.97072077 11.4151625,3.99072437 10.4746507,3.99072437 L10.4746507,3.99072437 Z" id="Shape"></path>
                    <path d="M10.5202787,15.9968479 C9.90949329,15.9968479 9.29870789,15.9880899 8.68833714,15.9996346 C8.21438757,16.0091887 7.98881577,15.8324364 8.00042609,15.3471635 C8.02281741,14.4450893 8.01493897,13.5426171 8.00374331,12.640543 C7.99793817,12.1990601 8.20111863,11.9980242 8.65599413,12.0000146 C9.89622437,12.0051898 11.1368693,12.0028013 12.3770995,12.001607 C12.8000466,12.001607 13.0040564,12.1887097 12.9990806,12.6094919 C12.9887142,13.5485885 12.9878849,14.4880832 12.9999099,15.4267817 C13.0048857,15.8316402 12.8037785,15.9956536 12.4094425,15.9948575 C11.7791684,15.9940613 11.1501382,15.9948575 10.5202787,15.9948575 C10.5202787,15.9956536 10.5202787,15.9964498 10.5202787,15.9968479 L10.5202787,15.9968479 Z" id="Shape"></path>
                    <path d="M2.49130371,15.9971603 C1.85714259,15.9967618 1.22339948,15.9947694 0.589656378,15.9971603 C0.194612035,15.9987542 -0.00771756322,15.8517167 0.000225135451,15.4369037 C0.0186187264,14.4805625 0.0169465973,13.5226273 0.00106119997,12.5658876 C-0.00562738967,12.1526685 0.210079363,12.0020447 0.597599053,12.0016462 C1.86550328,11.9996538 3.13340751,11.9988569 4.40172978,12.0028416 C4.79050358,12.0040371 5.00412016,12.1733892 4.99993978,12.5758495 C4.99032496,13.5325892 4.99032496,14.4901259 4.99993978,15.4472641 C5.00412016,15.855303 4.78799536,16.0031375 4.39378708,15.9999497 C3.75920794,15.994371 3.12504681,15.9979572 2.49130371,15.9971603 L2.49130371,15.9971603 Z" id="Shape"></path>
                    <path d="M18.5652338,12.002505 C19.1801414,12.0029034 19.794631,12.0013101 20.4095386,12.0037 C20.8028955,12.0048949 21.0064713,12.1666109 20.999783,12.5744857 C20.9843162,13.5308406 20.9826441,14.4883903 20.999783,15.4447452 C21.0077254,15.8609846 20.7974612,16.0007933 20.4049403,15.9999966 C19.1370853,15.9972084 17.8696483,15.9956152 16.6009572,15.998005 C16.1641262,15.9988017 15.9923199,15.8016356 16.0002623,15.3822097 C16.0190732,14.4624999 16.0190732,13.5419934 16.0010983,12.6222835 C15.9923199,12.1638227 16.2151246,11.994937 16.6632422,12.0001152 C17.2969607,12.0080814 17.9310973,12.0021067 18.5652338,12.002505 L18.5652338,12.002505 Z" id="Shape"></path>
                    <polygon id="Shape" points="19 7.62884582 19 11 18.2006804 11 18.2006804 8.49617542 10.9543525 8.4961754 10.9543525 10.5397756 10.0469924 10.5397756 10.0469924 8.4779024 2.81904486 8.47790242 2.81904486 10.9949006 2 10.9949006 2 7.66539182 10.0129216 7.66539182 10.0129216 6 10.9341789 6 10.9341789 7.62884582"></polygon>
                </g>
            </g>
        </g>
    </g>
</svg>