<svg class="icon" width="200" height="194.49" viewBox="0 0 1053 1024" xmlns="http://www.w3.org/2000/svg"><path fill="#bfbfbf" d="M662.384 887.388C662.248 962.862 601.694 1024 525.85 1024c-75.32 0-136.397-60.884-136.533-136.612h273.067zM616.87 91.02C616.87 40.855 576.12 0 525.85 0c-50.165 0-91.02 40.753-91.02 91.02 0 5.123.425 10.148 1.24 15.04-125.688 43.808-228.8 178.343-228.8 337.515v125.313s0 180.474-44.335 182.046c-26.436 0-46.685 20.377-46.685 45.513 0 25.307 20.372 45.508 45.503 45.508H889.95c25.254 0 45.503-20.377 45.503-45.508 0-25.313-20.37-45.513-45.502-45.513-45.517 0-45.517-180.776-45.517-180.776v-126.57c0-159.375-96.41-293.965-228.775-337.642.8-4.858 1.216-9.842 1.216-14.926zm0 0"/></svg>