<svg class="icon" width="200" height="200" viewBox="0 0 1024 1024" xmlns="http://www.w3.org/2000/svg"><path d="M512.128 185.508c78.956 0 146.796 58.706 158.742 136.576a127.57 127.57 0 0 1 128.335 31.94 128.527 128.527 0 0 1 2.94 178.61l30.47 30.598c13.414 13.542 23.635 28.682 30.534 45.29h.063c6.835 16.673 10.413 34.88 10.413 53.852v38.2c0 9.9-3.194 20.378-9.007 28.938a39.286 39.286 0 0 1-27.406 16.672h-32.132v10.477a23.444 23.444 0 0 1-23.444 23.573h-539.02a23.444 23.444 0 0 1-23.445-23.572v-10.54H187.17a38.775 38.775 0 0 1-27.405-16.672 52.51 52.51 0 0 1-8.944-28.938v-38.2c0-18.973 3.45-37.18 10.35-53.85h.064c12.84-31.175 37.88-52.64 61.005-75.89a128.27 128.27 0 0 1 2.938-178.546 127.122 127.122 0 0 1 128.208-31.94 161.617 161.617 0 0 1 158.742-136.576zm429.21 352.3h-51.806a23.508 23.508 0 1 1 0-47.08h51.807a431.19 431.19 0 0 0-125.143-281.776l-.127-.128a426.847 426.847 0 0 0-280.434-125.78v52.063a23.444 23.444 0 1 1-46.952 0V83.044a426.528 426.528 0 0 0-280.434 125.78l-.128.128a431.447 431.447 0 0 0-125.14 281.776h51.87a23.572 23.572 0 0 1 0 47.08H82.98A432.086 432.086 0 0 0 208.12 819.71h.128a427.614 427.614 0 0 0 280.434 125.972v-52.318c0-12.776 10.54-23.252 23.508-23.252s23.444 10.476 23.444 23.252v52.318a427.614 427.614 0 0 0 280.434-125.97h.127A431.83 431.83 0 0 0 941.34 537.806zM512.13 3.832c140.153 0 267.083 57.11 359.07 149.48h.064l.128.19a510.02 510.02 0 0 1 148.713 360.67A510.275 510.275 0 0 1 871.39 875.03h-.32a504.015 504.015 0 0 1-358.942 149.544A504.142 504.142 0 0 1 153.185 875.03h-.256A510.275 510.275 0 0 1 4.215 514.173c0-140.792 56.854-268.297 148.84-360.668v-.192h.13A504.845 504.845 0 0 1 512.127 3.832zm0 729.128h72.312l.128-106.87a14.054 14.054 0 0 1 14.054-14.118c7.793 0 14.117 6.452 14.117 14.118v62.22h60.62a12.904 12.904 0 0 0 1.087-5.367V632.86c0-67.584-44.524-98.758-88.154-142.516a159.828 159.828 0 0 1-148.394 0c-43.44 43.758-88.028 74.932-88.028 142.517v50.02c0 2.107.383 4.024 1.022 5.365h60.622V626.09c0-7.666 6.26-14.118 14.118-14.118 7.793 0 14.054 6.452 14.054 14.118l.127 106.87h72.313zm0-271.617a114.218 114.218 0 1 0 0-228.564 114.218 114.218 0 0 0 0 228.563zM266.445 732.96h68.096a42.16 42.16 0 0 1-21.143-16.67 57.684 57.684 0 0 1-10.477-33.347V632.86c0-21.08 3.258-40.818 9.838-59.408a129.55 129.55 0 0 1-52.638-12.776c-19.29 19.548-44.97 39.67-55.703 65.86v.192a93.01 93.01 0 0 0-6.77 35.646v36.667H238.4v-41.713c0-7.73 6.325-14.18 13.99-14.18 7.794 0 14.118 6.45 14.118 14.18v75.634h-.063zm87.132-360.155a84.705 84.705 0 0 0-37.945-9.518 81.383 81.383 0 0 0-81.064 81.575c0 22.485 9.07 42.8 23.7 57.492a79.403 79.403 0 0 0 83.364 19.547c17.247-21.27 38.775-40.243 58.13-59.663a165.64 165.64 0 0 1-46.185-89.432zM757.81 732.96v-75.633c0-7.73 6.517-14.18 14.118-14.18 7.73 0 14.118 6.45 14.118 14.18v41.65h40.692V662.31c0-12.904-2.364-24.977-6.644-35.645v-.128a93.712 93.712 0 0 0-20.633-30.215l-35.26-35.646c-15.97 7.73-33.858 12.2-52.638 12.776 6.58 18.653 9.773 38.33 9.773 59.41v50.017a57.875 57.875 0 0 1-10.348 33.345 42.29 42.29 0 0 1-21.208 16.672h68.03v.064zM670.68 372.806a158.742 158.742 0 0 1-46.185 89.496c19.42 19.357 40.947 38.33 58.13 59.665a40.245 40.245 0 0 0 9.902 2.683c4.92 1.214 10.285 1.79 16.098 1.79 22.422 0 42.672-9.328 57.3-24.02a81.128 81.128 0 0 0 23.764-57.493 81.767 81.767 0 0 0-81.064-81.575 85.088 85.088 0 0 0-37.945 9.455z"/></svg>