<svg class="icon" width="200" height="200" viewBox="0 0 1024 1024" xmlns="http://www.w3.org/2000/svg"><path d="M512 211.2c19.2 0 32-12.8 32-32V64c0-19.2-12.8-32-32-32s-32 19.2-32 32v108.8c0 19.2 12.8 38.4 32 38.4zM774.4 320c6.4 0 19.2 0 25.6-6.4l76.8-76.8c12.8-12.8 12.8-32 0-44.8s-32-12.8-44.8 0l-76.8 76.8c-12.8 12.8-12.8 32 0 44.8 0 0 12.8 6.4 19.2 6.4zM992 518.4H883.2c-19.2 0-32 12.8-32 32s12.8 32 32 32H992c19.2 0 32-12.8 32-32s-12.8-32-32-32zM230.4 307.2c6.4 6.4 12.8 12.8 19.2 12.8 6.4 0 19.2 0 25.6-6.4 12.8-12.8 12.8-32 0-44.8L192 185.6c-12.8-12.8-32-12.8-44.8 0s-12.8 32 0 44.8l83.2 76.8zm-89.6 211.2H32c-19.2 0-32 12.8-32 32s12.8 32 32 32h108.8c19.2 0 32-12.8 32-32s-12.8-32-32-32z"/><path d="M512 230.4c-172.8 0-307.2 140.8-307.2 320 0 96 57.6 166.4 108.8 230.4l57.6 76.8V960c0 19.2 12.8 32 32 32h230.4c19.2 0 32-12.8 32-32V857.6l57.6-76.8c51.2-64 108.8-134.4 108.8-230.4-12.8-179.2-147.2-320-320-320zM428.8 928v-51.2h166.4V928H428.8zm236.8-192L608 812.8h-64V640h64c19.2 0 32-12.8 32-32s-12.8-32-32-32H416c-19.2 0-32 12.8-32 32s12.8 32 32 32h64v172.8h-64c-19.2-25.6-32-51.2-51.2-70.4-51.2-64-96-121.6-96-192 0-140.8 108.8-256 243.2-256s243.2 108.8 243.2 256c0 64-44.8 121.6-89.6 185.6z"/></svg>