<?xml version="1.0" standalone="no"?><!DOCTYPE svg PUBLIC "-//W3C//DTD SVG 1.1//EN" "http://www.w3.org/Graphics/SVG/1.1/DTD/svg11.dtd"><svg class="icon" width="200px" height="200.00px" viewBox="0 0 1024 1024" version="1.1" xmlns="http://www.w3.org/2000/svg"><path d="M521.984 523.456c-131.52 0-238.528-102.656-238.528-228.928 0-126.144 107.008-228.864 238.528-228.864s238.528 102.656 238.528 228.864c0 126.272-107.008 228.928-238.528 228.928z m0-404.736c-101.056 0-183.168 78.848-183.168 175.808S420.992 470.4 521.984 470.4c101.056 0 183.168-78.848 183.168-175.872 0.064-96.896-82.112-175.808-183.168-175.808z"  /><path d="M957.696 958.4h-55.68c0-232.832-174.4-420.992-388.672-420.992-214.272 0-388.608 188.16-388.608 420.992h-55.68c0-65.536 11.776-128.064 34.944-187.52 22.4-57.344 54.4-108.8 95.168-153.024s88.32-78.912 141.248-103.232a413.504 413.504 0 0 1 345.856 0c52.992 24.192 100.48 59.072 141.312 103.296a482.88 482.88 0 0 1 95.168 153.024 511.36 511.36 0 0 1 34.944 187.456z"  /><path d="M103.872 890.176H943.36v60.416H103.872v-60.416z"  /></svg>