<?xml version="1.0" standalone="no"?><!DOCTYPE svg PUBLIC "-//W3C//DTD SVG 1.1//EN" "http://www.w3.org/Graphics/SVG/1.1/DTD/svg11.dtd"><svg t="1509619072149" class="icon" style="" viewBox="0 0 1024 1024" version="1.1" xmlns="http://www.w3.org/2000/svg" p-id="4216" xmlns:xlink="http://www.w3.org/1999/xlink" width="200" height="200"><defs><style type="text/css"></style></defs><path d="M904.028787 286.102985c38.06494-38.06494 38.06494-99.784548 0-137.842263l-68.879588-68.886813c-38.06494-38.068553-99.784548-38.068553-137.842263 0l-44.932308 44.845608 206.739914 206.721851L904.028787 286.102985 904.028787 286.102985zM904.028787 286.102985" p-id="4217"></path><path d="M805.79039 381.953517l-206.739914-206.812164L151.692599 624.973795l206.732689 206.732689L805.79039 381.953517zM805.79039 381.953517" p-id="4218" fill="#FFFFFF"></path><path d="M975.682777 886.052974l-50.831525 0-620.747167-0.0289-206.736301-206.725464L12.463134 933.958372c-14.800423 47.226247 38.296141 38.606816 40.918817 38.606816l922.2358 0c21.263191 0 38.523728-17.26415 38.523728-38.534566C1014.137868 912.763819 1006.114499 886.052974 975.682777 886.052974L975.682777 886.052974zM975.682777 886.052974" p-id="4219" fill="#FFFFFF"></path></svg>
