<?xml version="1.0" standalone="no"?><!DOCTYPE svg PUBLIC "-//W3C//DTD SVG 1.1//EN" "http://www.w3.org/Graphics/SVG/1.1/DTD/svg11.dtd"><svg class="icon" width="200px" height="200.00px" viewBox="0 0 1024 1024" version="1.1" xmlns="http://www.w3.org/2000/svg"><path d="M807.099077 295.384615c0-162.875077-132.509538-295.384615-295.384615-295.384615s-295.384615 132.509538-295.384616 295.384615c0 113.520246 64.382031 212.2752 158.542769 261.7088-65.390277 22.380308-125.296246 60.173785-175.438769 111.600247-84.877785 87.057723-131.623385 202.750031-131.623384 325.769846 0 16.313108 13.225354 29.538462 29.538461 29.538461s29.538462-13.225354 29.538462-29.538461c0-221.666462 175.499815-402.006646 391.2192-402.006646 3.983754 0 7.780431-0.799508 11.248246-2.231139 154.692923-9.154954 277.744246-137.889477 277.744246-294.841108z m-531.692308 0c0-130.300062 106.007631-236.307692 236.307693-236.307692s236.307692 106.007631 236.307692 236.307692-106.007631 236.307692-236.307692 236.307693-236.307692-106.007631-236.307693-236.307693zM580.066462 708.594215c0 14.139077 11.460923 25.6 25.6 25.6h324.923076c14.139077 0 25.6-11.460923 25.6-25.6s-11.460923-25.6-25.6-25.6h-324.923076c-14.137108 0-25.6 11.460923-25.6 25.6zM930.589538 827.403815h-324.923076c-14.139077 0-25.6 11.460923-25.6 25.6s11.460923 25.6 25.6 25.6h324.923076c14.139077 0 25.6-11.460923 25.6-25.6s-11.460923-25.6-25.6-25.6zM930.589538 972.8h-324.923076c-14.139077 0-25.6 11.460923-25.6 25.6s11.460923 25.6 25.6 25.6h324.923076c14.139077 0 25.6-11.460923 25.6-25.6s-11.460923-25.6-25.6-25.6z" /></svg>