<svg class="icon" width="200" height="200" viewBox="0 0 1024 1024" xmlns="http://www.w3.org/2000/svg"><path fill="#fff" d="M966.4 300.8C940.8 243.2 908.8 192 864 153.6c-44.8-44.8-96-76.8-147.2-102.4-57.6-25.6-121.6-38.4-185.6-38.4-19.2 0-38.4 19.2-38.4 44.8V480c0 25.6 19.2 44.8 44.8 44.8h428.8c12.8 0 25.6-6.4 32-12.8 6.4-6.4 12.8-19.2 12.8-32-6.4-64-19.2-121.6-44.8-179.2zm-51.2 134.4H576V102.4c83.2 12.8 166.4 51.2 224 108.8 64 64 102.4 140.8 115.2 224z"/><path fill="#fff" d="M908.8 569.6c-25.6-6.4-44.8 12.8-51.2 32-19.2 83.2-64 166.4-128 217.6-32 25.6-70.4 51.2-115.2 64-44.8 12.8-89.6 25.6-134.4 25.6-102.4 0-198.4-38.4-268.8-108.8S102.4 633.6 102.4 531.2c0-44.8 6.4-89.6 25.6-128 12.8-44.8 32-83.2 64-115.2 57.6-64 128-115.2 217.6-134.4 12.8 0 19.2-6.4 25.6-19.2 0-6.4 6.4-19.2 0-32 0-19.2-25.6-38.4-51.2-32-102.4 25.6-192 83.2-262.4 160-32 44.8-57.6 89.6-76.8 140.8-19.2 51.2-25.6 102.4-25.6 160 0 64 12.8 121.6 38.4 185.6C83.2 774.4 115.2 825.6 160 864c44.8 44.8 96 76.8 147.2 102.4 57.6 25.6 121.6 38.4 185.6 38.4 57.6 0 108.8-12.8 160-32s96-44.8 140.8-76.8c83.2-70.4 140.8-166.4 160-268.8 0-12.8 0-25.6-6.4-32-12.8-19.2-25.6-25.6-38.4-25.6z"/></svg>