<?xml version="1.0" encoding="UTF-8"?>
<svg width="20px" height="16px" viewBox="0 0 20 16" version="1.1" xmlns="http://www.w3.org/2000/svg" xmlns:xlink="http://www.w3.org/1999/xlink">
    <!-- Generator: Sketch 46.2 (44496) - http://www.bohemiancoding.com/sketch -->
    <title>关联</title>
    <desc>Created with Sketch.</desc>
    <defs></defs>
    <g id="1.1.0" stroke="none" stroke-width="1" fill="none" fill-rule="evenodd">
        <g id="简历详情（关联职位前）" transform="translate(-931.000000, -219.000000)" fill-rule="nonzero" fill="#FFFFFF">
            <path d="M935.266667,229.47619 C935.571429,229.47619 935.774603,229.666667 935.774603,229.952381 C935.774603,230.238095 935.571429,230.428571 935.266667,230.428571 L933.031746,230.428571 C931.914286,230.428571 931,229.571429 931,228.52381 L931,220.904762 C931,219.857143 931.914286,219 933.031746,219 L942.68254,219 C943.8,219 944.714286,219.857143 944.714286,220.904762 L944.714286,228.52381 C944.714286,229.571429 943.8,230.428571 942.68254,230.428571 L940.142857,230.428571 C939.838095,230.428571 939.634921,230.238095 939.634921,229.952381 C939.634921,229.666667 939.838095,229.47619 940.142857,229.47619 L942.631746,229.47619 C943.190476,229.47619 943.647619,229.047619 943.647619,228.52381 L943.647619,220.904762 C943.647619,220.380952 943.190476,219.952381 942.631746,219.952381 L932.980952,219.952381 C932.422222,219.952381 931.965079,220.380952 931.965079,220.904762 L931.965079,228.52381 C931.965079,229.047619 932.422222,229.47619 932.980952,229.47619 L935.266667,229.47619 Z M941.031746,223.571429 C941.336508,223.571429 941.539683,223.770186 941.539683,224.068323 C941.539683,224.36646 941.336508,224.565217 941.031746,224.565217 L938.796825,224.565217 C938.238095,224.565217 937.780952,225.012422 937.780952,225.559006 L937.780952,233.012422 C937.780952,233.559006 938.238095,234.006211 938.796825,234.006211 L948.447619,234.006211 C949.006349,234.006211 949.463492,233.559006 949.463492,233.012422 L949.463492,225.559006 C949.463492,225.012422 949.006349,224.565217 948.447619,224.565217 L945.907937,224.565217 C945.603175,224.565217 945.4,224.36646 945.4,224.068323 C945.4,223.770186 945.603175,223.571429 945.907937,223.571429 L948.396825,223.571429 C949.514286,223.571429 950.428571,224.465839 950.428571,225.559006 L950.428571,233.012422 C950.428571,234.10559 949.514286,235 948.396825,235 L938.746032,235 C937.628571,235 936.714286,234.10559 936.714286,233.012422 L936.714286,225.559006 C936.714286,224.465839 937.628571,223.571429 938.746032,223.571429 L941.031746,223.571429 Z" id="关联"></path>
        </g>
    </g>
</svg>