<svg xmlns="http://www.w3.org/2000/svg" xmlns:xlink="http://www.w3.org/1999/xlink" viewBox="0 0 30 30"><defs><style>.cls-1,.cls-2{}.cls-1{clip-rule:evenodd;}.cls-3{clip-path:url(#clip-path);}.cls-4{}.cls-5{clip-path:url(#clip-path-2);}.cls-6{clip-path:url(#clip-path-3);}.cls-7{clip-path:url(#clip-path-4);}.cls-8{clip-path:url(#clip-path-5);}.cls-9{clip-path:url(#clip-path-6);}.cls-10{clip-path:url(#clip-path-7);}.cls-11{clip-path:url(#clip-path-8);}.cls-12{clip-path:url(#clip-path-9);}.cls-13{clip-path:url(#clip-path-10);}.cls-14{clip-path:url(#clip-path-11);}.cls-15{clip-path:url(#clip-path-12);}</style><clipPath id="clip-path"><path class="cls-1" d="M25,8a3,3,0,0,0-3-3H8A3,3,0,0,0,5,8V22a3,3,0,0,0,3,3H21V23.46a2.74,2.74,0,0,1-.5,0H9.5a3,3,0,0,1-3-3V9.5a3,3,0,0,1,3-3h11a3,3,0,0,1,3,3v11a2.74,2.74,0,0,1,0,.5H25"/></clipPath><clipPath id="clip-path-2"><circle class="cls-2" cx="12.32" cy="12" r="3"/></clipPath><clipPath id="clip-path-3"><circle class="cls-2" cx="16.2" cy="18.96" r="0.77"/></clipPath><clipPath id="clip-path-4"><circle class="cls-2" cx="8.77" cy="18.96" r="0.77"/></clipPath><clipPath id="clip-path-5"><path class="cls-1" d="M21.66,23.1l1.44-1.44a.36.36,0,0,0-.36-.36H21.66a.36.36,0,0,0-.36.36v1.08A.36.36,0,0,0,21.66,23.1ZM21,25a1,1,0,0,1-1-1V21a1,1,0,0,1,1-1h3a1,1,0,0,1,1,1Z"/></clipPath><clipPath id="clip-path-6"><path class="cls-1" d="M22.6,18.4a.8.8,0,1,1-.8-.8.8.8,0,0,1,.8.8"/></clipPath><clipPath id="clip-path-7"><path class="cls-1" d="M22.6,14.4a.8.8,0,1,1-.8-.8.8.8,0,0,1,.8.8"/></clipPath><clipPath id="clip-path-8"><path class="cls-1" d="M22.6,10.4a.8.8,0,1,1-.8-.8.8.8,0,0,1,.8.8"/></clipPath><clipPath id="clip-path-9"><circle class="cls-2" cx="19.7" cy="18.4" r="0.8"/></clipPath><clipPath id="clip-path-10"><circle class="cls-2" cx="19.1" cy="14.4" r="0.8"/></clipPath><clipPath id="clip-path-11"><circle class="cls-2" cx="18.1" cy="10.4" r="0.8"/></clipPath><clipPath id="clip-path-12"><path class="cls-1" d="M8,19a4.07,4.07,0,0,1,0-.5,4.5,4.5,0,0,1,9,0,4.07,4.07,0,0,1,0,.5H15.46a2.74,2.74,0,0,0,0-.5,3,3,0,0,0-6,0,2.74,2.74,0,0,0,0,.5Z"/></clipPath></defs><title>资源 3</title><g id="图层_2" data-name="图层 2"><g id="图层_1-2" data-name="图层 1"><g class="cls-3"><rect class="cls-4" width="30" height="30"/></g><g class="cls-5"><path class="cls-4" d="M12.32,16.6a4.6,4.6,0,1,1,4.6-4.6A4.6,4.6,0,0,1,12.32,16.6Zm0-6a1.4,1.4,0,1,0,1.4,1.4A1.4,1.4,0,0,0,12.32,10.6Z"/></g><g class="cls-6"><rect class="cls-4" x="10.44" y="13.2" width="11.53" height="11.53"/></g><g class="cls-7"><rect class="cls-4" x="3" y="13.2" width="11.53" height="11.53"/></g><g class="cls-8"><rect class="cls-4" x="15" y="15" width="15" height="15"/></g><rect class="cls-4" x="19.7" y="17.6" width="2.1" height="1.6"/><rect class="cls-4" x="19" y="13.6" width="2.8" height="1.6"/><rect class="cls-4" x="18" y="9.6" width="3.9" height="1.6"/><g class="cls-9"><rect class="cls-4" x="16" y="12.6" width="11.6" height="11.6"/></g><g class="cls-10"><rect class="cls-4" x="16" y="8.6" width="11.6" height="11.6"/></g><g class="cls-11"><rect class="cls-4" x="16" y="4.6" width="11.6" height="11.6"/></g><g class="cls-12"><rect class="cls-4" x="13.9" y="12.6" width="11.6" height="11.6"/></g><g class="cls-13"><rect class="cls-4" x="13.3" y="8.6" width="11.6" height="11.6"/></g><g class="cls-14"><rect class="cls-4" x="12.3" y="4.6" width="11.6" height="11.6"/></g><g class="cls-15"><rect class="cls-4" x="3" y="9" width="19" height="15"/></g></g></g></svg>