<?xml version="1.0" encoding="UTF-8"?>
<svg width="20px" height="20px" viewBox="0 0 20 20" version="1.1" xmlns="http://www.w3.org/2000/svg" xmlns:xlink="http://www.w3.org/1999/xlink">
    <!-- Generator: Sketch 46.2 (44496) - http://www.bohemiancoding.com/sketch -->
    <title>Group 4</title>
    <desc>Created with Sketch.</desc>
    <defs></defs>
    <g id="切图" stroke="none" stroke-width="1" fill-rule="evenodd">
        <g id="Group-4">
            <path d="M13,4.60618237 L13,4.6 L16.9,4.6 L16.9,4.60618237 C17.2947606,4.65535562 17.6,4.9918676 17.6,5.4 C17.6,5.8081324 17.2947606,6.14464438 16.9,6.19381763 L16.9,6.2 L13,6.2 L13,6.19381763 C12.6052394,6.14464438 12.3,5.8081324 12.3,5.4 C12.3,4.9918676 12.6052394,4.65535562 13,4.60618237 Z M14,8.60618237 L14,8.6 L16.8,8.6 C17.242,8.6 17.6,8.958 17.6,9.4 C17.6,9.841 17.242,10.2 16.8,10.2 L14,10.2 L14,10.1938014 C13.6052394,10.1445029 13.3,9.80720902 13.3,9.4 C13.3,8.9918676 13.6052394,8.65535562 14,8.60618237 Z M14.7,12.6 L16.8,12.6 C17.242,12.6 17.6,12.958 17.6,13.4 C17.6,13.842 17.242,14.2 16.8,14.2 L14.7,14.2 C14.258,14.2 13.9,13.842 13.9,13.4 C13.9,12.958 14.258,12.6 14.7,12.6 Z M9.67921875,9.56180711 C11.0633995,10.3293193 12,11.8053741 12,13.5 C12,13.669 11.991,13.835 11.973,14 L11.9682152,14 C11.9499795,14.4058025 11.6162148,14.73 11.204,14.73 C10.782,14.73 10.44,14.387 10.44,13.965 C10.44,13.8642151 10.4594149,13.7680285 10.4947011,13.6799704 C10.4982337,13.6203887 10.5,13.5603836 10.5,13.5 C10.5,11.843 9.157,10.5 7.5,10.5 C5.843,10.5 4.5,11.843 4.5,13.5 C4.5,13.6108616 4.50595378,13.7204474 4.51786133,13.82848 C4.52270232,13.8553662 4.52613904,13.8827434 4.52809248,13.9105335 C4.53226379,13.9404844 4.53689963,13.9703086 4.542,14 L4.52921069,14 C4.51087143,14.4058025 4.17527041,14.73 3.765,14.73 C3.342,14.73 3,14.387 3,13.965 C3,13.919159 3.00401655,13.8742693 3.01171746,13.8306631 C3.00390582,13.7213628 3,13.6113324 3,13.5 C3,11.8054928 3.93693417,10.3295262 5.32093399,9.56196848 C4.81207589,9.02439734 4.5,8.29864328 4.5,7.5 C4.5,5.84314575 5.84314575,4.5 7.5,4.5 C9.15685425,4.5 10.5,5.84314575 10.5,7.5 C10.5,8.29856337 10.1879866,9.0242521 9.67921875,9.56180711 Z M3,0 L17.001,0 C18.656,0 20,1.344 20,2.999 L20,16 L18.458,16 C18.486,15.837 18.5,15.671 18.5,15.5 L18.5,4.5 C18.5,2.843 17.157,1.5 15.5,1.5 L4.5,1.5 C2.844,1.5 1.5,2.843 1.5,4.5 L1.5,15.5 C1.5,17.157 2.844,18.5 4.5,18.5 L15.5,18.5 C15.67,18.5 15.838,18.486 16,18.458 L16,20 L16.5,20 L3,20 C1.343,20 0,18.657 0,17 L0,2.999 C0,1.344 1.343,0 3,0 Z M7.5,9 C8.32842712,9 9,8.32842712 9,7.5 C9,6.67157288 8.32842712,6 7.5,6 C6.67157288,6 6,6.67157288 6,7.5 C6,8.32842712 6.67157288,9 7.5,9 Z" id="Combined-Shape"></path>
            <path d="M16,15 L19,15 C19.552,15 20,15.447 20,16 L16,20 C15.448,20 15,19.552 15,19 L15,16 C15,15.447 15.448,15 16,15 Z M16.3,17.74 C16.3,17.939 16.461,18.1 16.66,18.1 L18.1,16.66 C18.1,16.461 17.939,16.3 17.74,16.3 L16.66,16.3 C16.461,16.3 16.3,16.461 16.3,16.66 L16.3,17.74 Z" id="Clip-14"></path>
        </g>
    </g>
</svg>