<?xml version="1.0" encoding="UTF-8"?>
<svg width="20px" height="18px" viewBox="0 0 20 18" version="1.1" xmlns="http://www.w3.org/2000/svg" xmlns:xlink="http://www.w3.org/1999/xlink">
    <!-- Generator: Sketch 46.2 (44496) - http://www.bohemiancoding.com/sketch -->
    <title>Group 10</title>
    <desc>Created with Sketch.</desc>
    <defs></defs>
    <g id="二期web0124" stroke="none" stroke-width="1" fill-rule="evenodd">
        <g id="人才库-简历上传-信息确认-copy" transform="translate(-19.000000, -438.000000)" fill-rule="nonzero">
            <g id="Group-7" transform="translate(0.000000, 56.000000)">
                <g id="Group-29">
                    <g id="Group-10" transform="translate(19.000000, 382.000000)">
                        <path d="M16.7772301,11.7007367 C17.6986762,10.8976462 18.2857265,9.70575541 18.2857265,8.37500274 C18.2857265,5.96275801 16.3629991,4 14,4 C11.6370009,4 9.71427347,5.96277987 9.71427347,8.37500274 C9.71427347,9.70577729 10.3013452,10.8976462 11.2227913,11.7007367 C9.30974348,12.7256522 8,14.7706955 8,17.1250082 C8,17.6082266 8.38380025,18 8.85713674,18 C9.33049465,18 9.71427349,17.6082048 9.71427349,17.1250082 C9.71427349,14.7127635 11.6370009,12.7500055 14,12.7500055 C16.3630205,12.7500055 18.2857265,14.7127853 18.2857265,17.1250082 C18.2857265,17.6082266 18.6695268,18 19.1428633,18 C19.6161998,18 20,17.6082048 20,17.1250082 C20.0000428,14.7706955 18.6902779,12.7256522 16.7772301,11.7007367 Z M11.4285684,8.37500274 C11.4285684,6.92748975 12.5820249,5.75000547 14,5.75000547 C15.4179751,5.75000547 16.5714316,6.92748975 16.5714316,8.37500274 C16.5714316,9.82251573 15.4179751,11 14,11 C12.5820463,11 11.4285684,9.82251573 11.4285684,8.37500274 Z" id="Shape"></path>
                        <path d="M17.5000234,0 L2.49999739,0 C1.12141359,0 0,1.15345381 0,2.57142551 L0,15.4285745 C0,16.8465462 1.12141359,18 2.49999739,18 L5.65959719,18 C6.11980524,18 6.49292272,17.6162007 6.49292272,17.1428653 C6.49292272,16.6695299 6.11978443,16.2857306 5.65959719,16.2857306 L2.49999739,16.2857306 C2.04060133,16.2857306 1.66667186,15.9010961 1.66667186,15.4285959 L1.66667186,2.57142549 C1.66667186,2.09890389 2.04062214,1.71429078 2.49999739,1.71429078 L17.5000234,1.71429078 C17.9594195,1.71429078 18.3333489,2.0989253 18.3333489,2.57142549 L18.3333489,6.00000712 C18.3333489,6.4733639 18.7064872,6.85714182 19.1666745,6.85714182 C19.6268617,6.85714182 20,6.47334249 20,6.00000712 L20,2.57142551 C20.0000208,1.15345383 18.8786072,0 17.5000234,0 Z" id="Shape"></path>
                        <path d="M3.77917553,6 L7.22082447,6 C7.65112792,6 8,5.55222985 8,5 C8,4.44774517 7.65110846,4 7.22082447,4 L3.77917553,4 C3.34887208,4 3,4.44777015 3,5 C3.00000002,5.55222988 3.34887208,6 3.77917553,6 Z" id="Shape"></path>
                        <path d="M7.15498101,8 L3.84501899,8 C3.37835317,8 3,8.44777015 3,9 C3,9.55225483 3.37837428,10 3.84501899,10 L7.15498101,10 C7.62164683,10 8,9.55222985 8,9 C8.00002111,8.44777012 7.62164683,8 7.15498101,8 Z" id="Shape"></path>
                        <path d="M6.18650027,12 L3.81349973,12 C3.36424057,12 3,12.4477701 3,13 C3,13.5522548 3.36426089,14 3.81349973,14 L6.18650027,14 C6.63575943,14 7,13.5522299 7,13 C7,12.4477452 6.63575943,12 6.18650027,12 Z" id="Shape"></path>
                    </g>
                </g>
            </g>
        </g>
    </g>
</svg>