<?xml version="1.0" encoding="UTF-8"?>
<svg width="20px" height="20px" viewBox="0 0 20 20" version="1.1" xmlns="http://www.w3.org/2000/svg" xmlns:xlink="http://www.w3.org/1999/xlink">
    <!-- Generator: Sketch 46.2 (44496) - http://www.bohemiancoding.com/sketch -->
    <title>Combined Shape</title>
    <desc>Created with Sketch.</desc>
    <defs></defs>
    <g id="切图" stroke="none" stroke-width="1" fill-rule="evenodd">
        <path d="M18.5018275,9 L18.5,9 C18.512,8.854 18.5,8.67 18.5,8.5 L18.5,4.5 C18.5,2.843 17.157,1.5 15.5,1.5 L4.499,1.5 C2.844,1.5 1.5,2.843 1.5,4.5 L1.5,15.501 C1.5,17.156 2.844,18.5 4.499,18.5 L12.5,18.459 C12.6451343,18.459 12.7758615,18.4676443 12.9209171,18.4629226 C12.9523882,18.4590136 12.9844548,18.457 13.017,18.457 C13.442,18.457 13.787,18.802 13.787,19.227 C13.787,19.652 13.442,19.997 13.017,19.997 C13.0113185,19.997 13.0056517,19.9969386 13,19.9968165 L13,20.001 L13.499,20.001 L3,20.001 C1.343,20.001 -0.001,18.657 -0.001,17 L-0.001,3 C-0.001,1.343 1.343,0 3,0 L17,0 C18.657,0 20,1.343 20,3 L20,9 L19.9997725,9 C19.9997908,9.00216447 19.9998,9.00433115 19.9998,9.0065 C19.9998,9.4205 19.6648,9.7565 19.2508,9.7565 C18.8368,9.7565 18.5018,9.4205 18.5018,9.0065 C18.5018,9.00433115 18.5018092,9.00216447 18.5018275,9 Z M17.5837355,15.3590346 L19.646,17.2439 L19.6426336,17.2475822 C20.0080311,17.5836581 20.034806,18.1532113 19.699,18.519 C19.364,18.886 18.795,18.911 18.428,18.577 C18.404269,18.5552735 18.3819638,18.5325686 18.36109,18.5090038 L16.3689381,16.6882197 C15.8140146,17.0388119 15.1768676,17.2159 14.5383,17.2159 C13.7133,17.2159 12.8873,16.9209 12.2323,16.3219 C11.5573,15.7059 11.1633,14.8639 11.1233,13.9509 C11.0823,13.0379 11.3983,12.1639 12.0153,11.4889 C12.6313,10.8149 13.4733,10.4209 14.3863,10.3799 C15.3103,10.3319 16.1743,10.6549 16.8483,11.2719 C18.0104641,12.3338776 18.269964,14.0204012 17.5837355,15.3590346 Z M9.80000051,9.60000002 L4.80004883,9.60000002 C4.35817221,9.60000002 4,9.24182782 4,8.80000001 C4,8.35817221 4.35817221,8 4.80000001,8 L9.80000051,8 C10.2418278,8 10.6,8.35817221 10.6,8.80000001 C10.6,9.24182782 10.2418278,9.60000002 9.80000001,9.60000002 Z M4.80004883,4 L14.8000488,4 L14.8000488,4.00619547 C14.8328239,4.00210643 14.8662148,4 14.9000977,4 C15.3419255,4 15.7000977,4.35817221 15.7000977,4.80000001 C15.7000977,5.24182782 15.3419255,5.60000002 14.9000977,5.60000002 C14.8662148,5.60000002 14.8328239,5.5978936 14.8000488,5.59380456 L14.8000488,5.60000002 L4.80004883,5.60000002 C4.35817221,5.60000002 4,5.24182782 4,4.80000001 C4,4.35817221 4.35817221,4 4.80000001,4 Z M14.5423,12.1759 C14.5173,12.1759 14.4923,12.1769 14.4673,12.1779 C14.0353,12.1969 13.6363,12.3839 13.3443,12.7039 C13.0513,13.0239 12.9013,13.4379 12.9203,13.8699 C12.9403,14.3029 13.1263,14.7019 13.4463,14.9929 C14.1063,15.5959 15.1343,15.5499 15.7373,14.8899 C16.3393,14.2309 16.2933,13.2029 15.6333,12.6009 L15.6333,12.5999 C15.3323,12.3249 14.9473,12.1759 14.5423,12.1759 Z" id="Combined-Shape"></path>
    </g>
</svg>