<?xml version="1.0" encoding="UTF-8"?>
<svg width="19px" height="22px" viewBox="0 0 19 22" version="1.1" xmlns="http://www.w3.org/2000/svg" xmlns:xlink="http://www.w3.org/1999/xlink">
    <!-- Generator: Sketch 46.2 (44496) - http://www.bohemiancoding.com/sketch -->
    <title>Group 11</title>
    <desc>Created with Sketch.</desc>
    <defs></defs>
    <g id="二期web0124" stroke="none" stroke-width="1" fill-rule="evenodd">
        <g id="人才库-简历上传-信息确认-copy" transform="translate(-21.000000, -130.000000)">
            <g id="Group-7" transform="translate(0.000000, 56.000000)">
                <g id="Group-11" transform="translate(21.000000, 74.366755)">
                    <path d="M4.71661422,9.42405414 C4.32846439,9.42405414 4,9.7520561 4,10.1621712 C4,10.5619001 4.31847631,10.9001631 4.71661422,10.9001631 L8.96708823,10.9001631 C9.36520184,10.9001631 9.68370245,10.5721611 9.68370245,10.1621712 C9.68370245,9.76231711 9.36520184,9.42405414 8.96708823,9.42405414 L4.71661422,9.42405414 Z M14.5213831,5.76447723 C14.5213831,5.36462317 14.2029068,5.02638522 13.8046717,5.02638522 L4.71661422,5.02638522 C4.32846439,5.02638522 4,5.35436216 4,5.76447723 C4,6.16423119 4.31847631,6.50246913 4.71661422,6.50246913 L13.8146354,6.50246913 C14.2029068,6.50246913 14.5213831,6.16423119 14.5213831,5.76447723 Z M14.9494366,16.948253 C14.8996907,16.897023 14.8499447,16.856054 14.8001015,16.825271 C15.1983366,16.230683 15.4371756,15.523374 15.4371756,14.7443381 C15.4371756,12.7248711 13.8245992,11.0949971 11.8438248,11.0949971 C9.86292891,11.0949971 8.24038872,12.7248711 8.24038872,14.7443381 C8.24038872,16.76378 9.85296513,18.393654 11.8338367,18.393654 C12.560439,18.393654 13.2373683,18.178373 13.8046717,17.7990659 C13.8345873,17.860657 13.884309,17.932409 13.9341522,17.983639 L15.7855676,19.8902849 C16.064286,20.1772929 16.5122428,20.1772929 16.7909612,19.8902849 C17.0696796,19.6032519 17.0696796,19.142007 16.7909612,18.854999 L14.9494366,16.948253 Z M11.8338367,16.958514 C10.6293863,16.958514 9.65388403,15.964197 9.65388403,14.7443381 C9.65388403,13.5244541 10.6293863,12.5301371 11.8338367,12.5301371 C13.0382143,12.5301371 14.0137165,13.5244541 14.0137165,14.7443381 C14.0137165,15.964197 13.0382143,16.958514 11.8338367,16.958514 Z" id="Fill-1"></path>
                    <path d="M11.4084571,19.6014648 L2.94519897,19.6014648 C2.10523023,19.6014648 1.42474626,18.9259023 1.42474626,18.0920085 L1.42474626,3.03996665 C1.42474626,2.20604709 2.10523023,1.5305104 2.94519897,1.5305104 L15.9378871,1.5305104 C16.7777779,1.5305104 17.4582359,2.20604709 17.4582359,3.03996665 L17.4582359,10.5448819 L17.4689046,10.5448819 C17.4689046,10.967073 17.8090817,11.3048156 18.2344523,11.3048156 C18.6597191,11.3048156 19,10.967073 19,10.5448819 L19,3.01883519 C19,1.36169065 18.3407236,5.68434189e-14 16.6715067,5.68434189e-14 L3.03015888,5.68434189e-14 C1.36096793,5.68434189e-14 0,1.36169065 0,3.01883519 L0,18.0920085 C0,19.7492304 1.37161063,21.1108179 3.04082753,21.1108179 L11.3978144,21.1108179 C11.823185,21.1108179 12.1633621,20.7731011 12.1633621,20.350807 C12.1633621,19.9391816 11.823185,19.6014648 11.4084571,19.6014648 Z" id="Fill-2"></path>
                    <path d="M17,13.0686016 C17,13.4277082 17.1906247,13.7596475 17.5000254,13.9391497 C17.8094261,14.1187883 18.1906078,14.1187883 18.5000085,13.9391497 C18.8094092,13.7596475 19,13.4277082 19,13.0686016 C19,12.7094949 18.8094092,12.3775215 18.5000085,12.1980534 C18.1906078,12.0184149 17.8094261,12.0184149 17.5000254,12.1980534 C17.1906247,12.3775215 17,12.7094949 17,13.0686016 Z" id="Fill-3"></path>
                </g>
            </g>
        </g>
    </g>
</svg>