<svg class="icon" width="200" height="200" viewBox="0 0 1024 1024" xmlns="http://www.w3.org/2000/svg"><path fill="#bfbfbf" d="M928 416h-76.576c-7.584-26.848-18.08-52.384-31.456-76.224l54.048-54.048c24.992-24.992 24.992-65.504 0-90.496l-45.248-45.248c-24.992-24.992-65.504-24.992-90.496 0l-54.048 54.048c-23.84-13.376-49.376-23.904-76.224-31.456V96c0-35.36-28.64-64-64-64h-64c-35.36 0-64 28.64-64 64v76.576c-26.848 7.584-52.384 18.08-76.224 31.456l-54.048-54.08c-24.992-24.992-65.504-24.992-90.496 0l-45.28 45.28c-24.992 24.992-24.992 65.504 0 90.496L204 339.776c-13.344 23.84-23.872 49.376-31.424 76.224H96c-35.36 0-64 28.64-64 64v64c0 35.36 28.64 64 64 64h76.576c7.584 26.848 18.08 52.384 31.456 76.224l-54.048 54.048c-24.992 24.992-24.992 65.504 0 90.496l45.248 45.248c24.992 24.992 65.504 24.992 90.496 0l54.048-54.048c23.84 13.344 49.376 23.872 76.224 31.456V928c0 35.36 28.64 64 64 64h64c35.36 0 64-28.64 64-64v-76.576c26.848-7.584 52.384-18.08 76.224-31.456l54.048 54.048c24.992 24.992 65.504 24.992 90.496 0l45.248-45.248c24.992-24.992 24.992-65.504 0-90.496l-54.048-54.048c13.344-23.84 23.872-49.376 31.456-76.224H928c35.36 0 64-28.64 64-64v-64c0-35.36-28.64-64-64-64zM512 671.008c-87.808 0-159.008-71.2-159.008-159.008S424.192 352.992 512 352.992 671.008 424.192 671.008 512 599.808 671.008 512 671.008z"/></svg>