<?xml version="1.0" standalone="no"?><!DOCTYPE svg PUBLIC "-//W3C//DTD SVG 1.1//EN" "http://www.w3.org/Graphics/SVG/1.1/DTD/svg11.dtd"><svg t="1528358961807" class="icon" style="" viewBox="0 0 1025 1024" version="1.1" xmlns="http://www.w3.org/2000/svg" p-id="7293" xmlns:xlink="http://www.w3.org/1999/xlink" width="200.1953125" height="200"><defs><style type="text/css"></style></defs><path d="M582.877073 259.966017c-94.672664 0-172.969515 78.808596-172.969515 172.969515 0 94.672664 78.808596 172.969515 172.969515 172.969515 94.672664 4.093953 172.969515-74.714643 172.969516-172.969515 0-94.16092-78.808596-172.969515-172.969516-172.969515z" fill="#FF7CBD" p-id="7294"></path><path d="M511.74464 0c-282.482759 0-511.744128 229.261369-511.744128 511.744128s229.261369 511.744128 511.744128 511.744128c234.378811 0 511.744128-180.645677 511.744128-511.744128 0-282.482759-229.261369-511.744128-511.744128-511.744128z m71.132433 673.455272c-50.662669 0-97.231384-15.352324-136.123938-41.963018l-78.296851 78.296851 88.531734 88.531735-47.592204 47.592203-88.531734-88.531734-81.367316 81.367317-47.592204-47.592204 81.367316-81.367317-88.531734-88.531734 47.592204-47.592204 88.531734 88.531735 76.249875-76.249876c-31.216392-42.986507-50.662669-93.649175-50.662669-148.405797 0-134.076962 106.442779-240.007996 240.007996-240.007996 134.076962 0 236.425787 106.442779 236.425787 236.425787 0 128.95952-106.442779 239.496252-240.007996 239.496252z" fill="#FF7CBD" p-id="7295"></path></svg>