<?xml version="1.0" encoding="utf-8"?>
<!-- Generator: Adobe Illustrator 22.0.0, SVG Export Plug-In . SVG Version: 6.00 Build 0)  -->
<svg version="1.1" id="图层_1" xmlns="http://www.w3.org/2000/svg" xmlns:xlink="http://www.w3.org/1999/xlink" x="0px" y="0px"
	 viewBox="0 0 74.8 99.8" style="enable-background:new 0 0 74.8 99.8;" xml:space="preserve">
<title>资源 5</title>
<g id="图层_2_1_">
	<g id="图层_1-2">
		<path d="M62.3,99.8H12.5C5.6,99.8,0,94.2,0,87.3V12.5C0,5.6,5.6,0,12.5,0h49.9c6.9,0,12.5,5.6,12.5,12.5v74.8
			C74.8,94.2,69.2,99.8,62.3,99.8z M68.6,12.5c0-3.4-2.8-6.2-6.2-6.2H12.5C9,6.2,6.2,9,6.2,12.5v74.8c0,3.4,2.8,6.2,6.2,6.2h49.9
			c3.4,0,6.2-2.8,6.2-6.2L68.6,12.5L68.6,12.5z M37.4,90.4c-5.2,0-9.4-4.2-9.4-9.3s4.2-9.3,9.3-9.4c5.2,0,9.4,4.2,9.4,9.3
			c0,0,0,0,0,0C46.7,86.2,42.6,90.4,37.4,90.4z M40.5,78h-6.2v6.2h6.2L40.5,78z"/>
	</g>
</g>
</svg>
