<?xml version="1.0" standalone="no"?><!DOCTYPE svg PUBLIC "-//W3C//DTD SVG 1.1//EN" "http://www.w3.org/Graphics/SVG/1.1/DTD/svg11.dtd"><svg class="icon" width="200px" height="191.40px" viewBox="0 0 1070 1024" version="1.1" xmlns="http://www.w3.org/2000/svg"><path d="M540.951273 1014.411636C261.12 1014.411636 34.350545 789.131636 34.350545 511.301818 34.350545 233.425455 261.12 8.192 540.951273 8.192c279.738182 0 506.600727 225.28 506.600727 503.156364 0 277.829818-226.816 503.063273-506.600727 503.063272z m0-930.722909c-237.847273 0-430.592 191.441455-430.592 427.613091 0 236.171636 192.791273 427.613091 430.545454 427.613091 237.847273 0 430.638545-191.441455 430.638546-427.613091 0-236.171636-192.791273-427.613091-430.592-427.613091z m243.991272 491.985455h-256.465454a25.879273 25.879273 0 0 1-18.711273-8.052364 25.553455 25.553455 0 0 1-8.052363-18.525091v-306.734545c0-14.289455 11.636364-25.832727 25.972363-25.832727h25.786182c14.336 0 25.972364 11.543273 25.972364 25.786181v256.093091h205.498181c14.336 0 25.972364 11.543273 25.972364 25.786182v25.6c0 14.289455-11.636364 25.832727-25.972364 25.832727z" fill="#17afff" /></svg>
