<svg class="icon" width="200" height="200" viewBox="0 0 1024 1024" xmlns="http://www.w3.org/2000/svg"><path d="M291.456 949.44c-11.712 0-20.736-3.968-27.392-8.768-14.336-10.368-28.288-32.384-13.504-78.336l51.008-158.72c10.176-31.616-4.352-76.672-31.04-96.448L136.96 504c-42.368-31.296-37.952-65.856-34.112-77.632 3.84-11.584 18.368-42.368 70.4-42.368H336.64c35.008 0 71.488-20.736 81.28-50.88l50.56-151.744C483.2 136.064 507.328 128 524.928 128h.192c17.792 0 42.112 9.984 57.472 56L659.2 417.28c5.504 16.768-3.648 34.944-20.416 40.448-16.768 5.568-34.88-3.584-40.384-20.416l-72.96-222.208-46.656 137.92C460.48 409.28 399.36 448 336.64 448H178.944L309.12 552.32c48.32 35.712 72 111.168 53.376 168.96l-47.104 147.456 121.984-88.384c49.28-35.84 126.464-35.776 175.68-.128l122.048 88.192L688 722.176c-18.816-58.24 4.8-136.064 53.76-172.352L871.488 448h-111.04c-17.664 0-32-14.336-32-32s14.336-32 32-32h116.8c52.032 0 66.56 30.784 70.4 42.368 3.904 11.776 8.256 44.416-34.56 76.16L780.16 603.968c-26.624 19.712-41.408 66.688-31.232 98.176l50.816 158.016c14.848 46.016.832 68.224-13.504 78.656-14.336 10.432-39.616 16.96-78.656-11.264L575.616 832.32c-26.816-19.392-73.792-19.328-100.544.256L342.72 928.96c-20.864 15.232-37.824 20.48-51.264 20.48z"/></svg>