<svg xmlns="http://www.w3.org/2000/svg" viewBox="0 0 50 100"><defs><style>.cls-1{fill:##17afff;}</style></defs><title>资源 4</title><g id="图层_2" data-name="图层 2"><g id="图层_1-2" data-name="图层 1"><path class="cls-1" d="M36.51,25h-23a3.13,3.13,0,0,1-3.05-2.46L6.33,3.79A3.12,3.12,0,0,1,8.71.07,3,3,0,0,1,9.38,0H40.63a3.14,3.14,0,0,1,3.12,3.15,2.81,2.81,0,0,1-.07.65L39.56,22.55A3.13,3.13,0,0,1,36.51,25ZM16,18.75H34l2.74-12.5H13.26ZM25,100a3.16,3.16,0,0,1-2.31-1L.82,75.12a3.15,3.15,0,0,1-.75-2.77L8.43,33.72a3.12,3.12,0,0,1,3.05-2.47h27a3.12,3.12,0,0,1,3,2.47l8.36,38.63a3.15,3.15,0,0,1-.75,2.77L27.3,99A3.13,3.13,0,0,1,25,100ZM6.52,72.08,25,92.25,43.48,72.08,36,37.5H14Z"/></g></g></svg>